<svg width="291" height="126" viewBox="0 0 291 126" fill="none" xmlns="http://www.w3.org/2000/svg">
<path d="M9.8162 14.0444L1.08631 50.1306C0.364658 53.1137 0 56.1719 0 59.241V107.171C0 117.307 8.21692 125.524 18.353 125.524H271.813C281.949 125.524 290.166 117.307 290.166 107.171V59.9243C282.398 66.3826 274.983 58.7413 269.513 48.7187C264.803 40.0881 254.048 35.6371 245.521 40.532C237.986 44.8573 228.366 42.0292 224.371 34.3146L217.39 20.8349C213.12 12.5906 203.366 8.83331 194.669 12.0828L183.406 16.2909C177.637 18.4466 171.136 16.8741 166.989 12.3197C159.24 3.80812 145.195 6.77644 141.552 17.6957L131.371 48.2133C129.216 54.6738 120.228 55.0701 117.512 48.8244C116.011 45.3707 112.162 43.5872 108.556 44.6738L105.052 45.73C99.775 47.3203 94.1098 44.9593 91.5242 40.0921L85.026 27.8603C81.7405 21.6757 73.3711 20.5083 68.5185 25.5576C63.8209 30.4456 55.7626 29.5347 52.2747 23.7215L43.3921 8.91729C34.945 -5.16125 13.6767 -1.91355 9.8162 14.0444Z" fill="url(#paint0_linear_3564_3472)"/>
<defs>
<linearGradient id="paint0_linear_3564_3472" x1="145.083" y1="-29.4897" x2="145.083" y2="125.524" gradientUnits="userSpaceOnUse">
<stop stop-color="#00C2A8"/>
<stop offset="1" stop-color="#D9D9D9" stop-opacity="0"/>
</linearGradient>
</defs>
</svg>
