<svg width="276" height="165" viewBox="0 0 276 165" fill="none" xmlns="http://www.w3.org/2000/svg">
<rect x="0.542509" y="0.542509" width="274.51" height="163.838" rx="21.1579" fill="white"/>
<rect x="0.542509" y="0.542509" width="274.51" height="163.838" rx="21.1579" stroke="#EFF0F7" stroke-width="1.08502"/>
<rect opacity="0.1" x="19.5273" y="27.1245" width="34.7206" height="34.7206" rx="6.29931" fill="#00C2A8"/>
<path opacity="0.3" d="M44.2017 45.5291C44.2017 47.1823 43.7115 48.7983 42.793 50.1729C41.8745 51.5475 40.5691 52.6188 39.0418 53.2515C37.5144 53.8841 35.8338 54.0496 34.2123 53.7271C32.5909 53.4046 31.1016 52.6085 29.9326 51.4395C28.7636 50.2706 27.9675 48.7812 27.645 47.1598C27.3225 45.5383 27.488 43.8577 28.1206 42.3304C28.7533 40.803 29.8246 39.4976 31.1992 38.5791C32.5738 37.6606 34.1898 37.1704 35.843 37.1704V45.5291H44.2017Z" fill="#00C2A8"/>
<path d="M37.9329 35.081C39.0306 35.081 40.1175 35.2972 41.1316 35.7173C42.1457 36.1373 43.0672 36.753 43.8433 37.5292C44.6195 38.3054 45.2352 39.2268 45.6553 40.241C46.0753 41.2551 46.2915 42.342 46.2915 43.4397L37.9329 43.4397L37.9329 35.081Z" fill="#00C2A8"/>
<path d="M73.4925 50.6962C72.7176 50.6962 71.9935 50.5553 71.3203 50.2735C70.6471 49.9839 70.0522 49.5886 69.5356 49.0876C69.0268 48.5867 68.6276 48.0035 68.338 47.3382C68.0484 46.6728 67.9036 45.9605 67.9036 45.2012C67.9036 44.4419 68.0484 43.7296 68.338 43.0643C68.6276 42.3989 69.0268 41.8158 69.5356 41.3148C70.0522 40.8138 70.6471 40.4225 71.3203 40.1407C71.9935 39.851 72.7176 39.7062 73.4925 39.7062C74.1891 39.7062 74.8467 39.8197 75.465 40.0467C76.0834 40.2737 76.6353 40.5947 77.1206 41.0095L76.5218 43.4752C76.2322 42.9899 75.8329 42.5829 75.3241 42.2541C74.8154 41.9175 74.2283 41.7492 73.5629 41.7492C72.9289 41.7492 72.3536 41.9058 71.8369 42.2189C71.3282 42.5242 70.925 42.939 70.6276 43.4635C70.3301 43.9801 70.1814 44.5594 70.1814 45.2012C70.1814 45.8353 70.3301 46.4145 70.6276 46.939C70.925 47.4634 71.3282 47.8822 71.8369 48.1953C72.3536 48.5006 72.9289 48.6532 73.5629 48.6532C74.2205 48.6532 74.8036 48.4888 75.3124 48.1601C75.829 47.8235 76.2322 47.4125 76.5218 46.9272L77.1206 49.3929C76.6274 49.7999 76.0717 50.1209 75.4533 50.3557C74.8428 50.5827 74.1891 50.6962 73.4925 50.6962ZM78.2885 50.4849V39.2131H80.3315V50.4849H78.2885ZM81.921 50.4849V43.44H83.964V50.4849H81.921ZM82.9425 42.4185C82.6372 42.4185 82.3789 42.3128 82.1676 42.1015C81.9562 41.8901 81.8505 41.6318 81.8505 41.3266C81.8505 41.0134 81.9562 40.7551 82.1676 40.5516C82.3789 40.3403 82.6372 40.2346 82.9425 40.2346C83.2556 40.2346 83.5139 40.3403 83.7174 40.5516C83.9288 40.7551 84.0345 41.0134 84.0345 41.3266C84.0345 41.6318 83.9288 41.8901 83.7174 42.1015C83.5139 42.3128 83.2556 42.4185 82.9425 42.4185ZM89.1816 50.7197C88.391 50.7197 87.6944 50.5553 87.0916 50.2266C86.4889 49.8978 86.0192 49.4477 85.6827 48.8763C85.3461 48.297 85.1778 47.6356 85.1778 46.892C85.1778 46.1797 85.3422 45.5496 85.6709 45.0016C85.9997 44.4459 86.4419 44.0075 86.9977 43.6866C87.5613 43.3656 88.1836 43.2052 88.8646 43.2052C89.5612 43.2052 90.1835 43.3656 90.7315 43.6866C91.2794 43.9997 91.7099 44.4302 92.023 44.9781C92.344 45.5261 92.5044 46.1484 92.5044 46.845V47.5612H88.2071C88.0114 47.5612 87.8235 47.5495 87.6435 47.526C87.4634 47.5025 87.2834 47.4751 87.1034 47.4438C87.1973 47.9135 87.4282 48.297 87.7961 48.5945C88.1718 48.8841 88.6493 49.0289 89.2286 49.0289C89.6747 49.0289 90.0739 48.9389 90.4262 48.7589C90.7863 48.5788 91.0798 48.3558 91.3068 48.0896L91.753 49.9213C91.4007 50.1874 91.0015 50.387 90.5553 50.5201C90.117 50.6532 89.6591 50.7197 89.1816 50.7197ZM87.0564 46.211C87.4478 46.1249 87.8313 46.0818 88.2071 46.0818H89.4517C89.6708 46.0818 89.8783 46.0897 90.0739 46.1053C90.2696 46.121 90.4536 46.1484 90.6258 46.1875C90.5084 45.7648 90.2931 45.4321 89.98 45.1895C89.6747 44.9468 89.2951 44.8255 88.8411 44.8255C88.4106 44.8255 88.0349 44.9507 87.7139 45.2012C87.4008 45.4439 87.1816 45.7805 87.0564 46.211ZM93.6371 50.4849V43.44H95.4688V44.2149C95.7193 43.8862 96.0284 43.6357 96.3963 43.4635C96.7642 43.2913 97.1595 43.2052 97.5822 43.2052C98.0832 43.2052 98.5489 43.3265 98.9795 43.5692C99.4178 43.804 99.77 44.1523 100.036 44.6141C100.31 45.0682 100.447 45.62 100.447 46.2697V50.4849H98.4041V46.5397C98.4041 46.1484 98.2867 45.8 98.0519 45.4948C97.8171 45.1895 97.4805 45.0368 97.0421 45.0368C96.6899 45.0368 96.3729 45.1582 96.0911 45.4008C95.8171 45.6357 95.6801 46.0075 95.6801 46.5163V50.4849H93.6371ZM102.451 50.4849V45.0603H101.135V43.44H102.486V41.0917H104.458V43.44H105.856V45.0603H104.494V50.4849H102.451ZM110.429 50.4849V43.44H112.261V44.6494C112.504 44.2423 112.809 43.9292 113.177 43.7101C113.552 43.4831 113.991 43.3696 114.492 43.3696L114.938 45.1777C114.789 45.1308 114.621 45.1073 114.433 45.1073C113.846 45.1073 113.372 45.2991 113.012 45.6826C112.652 46.0583 112.472 46.5985 112.472 47.3029V50.4849H110.429ZM119.249 50.7197C118.458 50.7197 117.762 50.5553 117.159 50.2266C116.556 49.8978 116.086 49.4477 115.75 48.8763C115.413 48.297 115.245 47.6356 115.245 46.892C115.245 46.1797 115.409 45.5496 115.738 45.0016C116.067 44.4459 116.509 44.0075 117.065 43.6866C117.629 43.3656 118.251 43.2052 118.932 43.2052C119.628 43.2052 120.251 43.3656 120.799 43.6866C121.347 43.9997 121.777 44.4302 122.09 44.9781C122.411 45.5261 122.572 46.1484 122.572 46.845V47.5612H118.274C118.079 47.5612 117.891 47.5495 117.711 47.526C117.531 47.5025 117.351 47.4751 117.171 47.4438C117.265 47.9135 117.495 48.297 117.863 48.5945C118.239 48.8841 118.717 49.0289 119.296 49.0289C119.742 49.0289 120.141 48.9389 120.493 48.7589C120.853 48.5788 121.147 48.3558 121.374 48.0896L121.82 49.9213C121.468 50.1874 121.069 50.387 120.623 50.5201C120.184 50.6532 119.726 50.7197 119.249 50.7197ZM117.124 46.211C117.515 46.1249 117.899 46.0818 118.274 46.0818H119.519C119.738 46.0818 119.945 46.0897 120.141 46.1053C120.337 46.121 120.521 46.1484 120.693 46.1875C120.576 45.7648 120.36 45.4321 120.047 45.1895C119.742 44.9468 119.362 44.8255 118.908 44.8255C118.478 44.8255 118.102 44.9507 117.781 45.2012C117.468 45.4439 117.249 45.7805 117.124 46.211ZM126.875 50.6727C126.225 50.6727 125.634 50.5044 125.102 50.1678C124.569 49.8313 124.143 49.3851 123.822 48.8293C123.509 48.2657 123.352 47.6434 123.352 46.9624C123.352 46.2814 123.509 45.6591 123.822 45.0955C124.143 44.532 124.569 44.0858 125.102 43.757C125.634 43.4204 126.225 43.2521 126.875 43.2521C127.329 43.2521 127.743 43.3343 128.119 43.4987C128.495 43.6553 128.816 43.8744 129.082 44.1562V43.44H130.843V50.4849H129.082V49.7686C128.816 50.0504 128.495 50.2735 128.119 50.4379C127.743 50.5944 127.329 50.6727 126.875 50.6727ZM127.121 48.8763C127.466 48.8763 127.779 48.7902 128.06 48.618C128.342 48.4458 128.565 48.2149 128.73 47.9252C128.902 47.6356 128.988 47.3147 128.988 46.9624C128.988 46.6102 128.902 46.2893 128.73 45.9996C128.565 45.71 128.342 45.4791 128.06 45.3069C127.779 45.1347 127.466 45.0486 127.121 45.0486C126.777 45.0486 126.464 45.1347 126.182 45.3069C125.9 45.4791 125.673 45.71 125.501 45.9996C125.336 46.2893 125.254 46.6102 125.254 46.9624C125.254 47.3147 125.336 47.6356 125.501 47.9252C125.673 48.2149 125.9 48.4458 126.182 48.618C126.464 48.7902 126.777 48.8763 127.121 48.8763ZM135.841 50.7197C135.145 50.7197 134.507 50.5514 133.927 50.2148C133.348 49.8782 132.886 49.4242 132.542 48.8528C132.205 48.2814 132.037 47.6513 132.037 46.9624C132.037 46.2658 132.205 45.6357 132.542 45.0721C132.886 44.5006 133.348 44.0466 133.927 43.7101C134.507 43.3735 135.145 43.2052 135.841 43.2052C136.327 43.2052 136.785 43.2874 137.215 43.4517C137.653 43.6083 138.041 43.8431 138.377 44.1562L137.849 46.2345C137.653 45.9135 137.391 45.6357 137.062 45.4008C136.741 45.1582 136.362 45.0368 135.923 45.0368C135.556 45.0368 135.227 45.1229 134.937 45.2952C134.648 45.4674 134.421 45.6983 134.256 45.9879C134.092 46.2775 134.01 46.6024 134.01 46.9624C134.01 47.3147 134.092 47.6395 134.256 47.937C134.421 48.2266 134.648 48.4575 134.937 48.6297C135.227 48.8019 135.556 48.888 135.923 48.888C136.362 48.888 136.741 48.7706 137.062 48.5358C137.391 48.2931 137.653 48.0113 137.849 47.6904L138.377 49.7686C138.041 50.0817 137.653 50.3205 137.215 50.4849C136.785 50.6414 136.327 50.7197 135.841 50.7197ZM139.44 50.4849V39.2131H141.483V43.9684C141.733 43.7179 142.019 43.53 142.34 43.4048C142.669 43.2717 143.017 43.2052 143.385 43.2052C143.886 43.2052 144.352 43.3265 144.782 43.5692C145.22 43.804 145.573 44.1523 145.839 44.6141C146.113 45.0682 146.25 45.62 146.25 46.2697V50.4849H144.207V46.5397C144.207 46.1484 144.089 45.8 143.854 45.4948C143.62 45.1895 143.283 45.0368 142.845 45.0368C142.492 45.0368 142.175 45.1582 141.894 45.4008C141.62 45.6357 141.483 46.0075 141.483 46.5163V50.4849H139.44Z" fill="#4A5565"/>
<path d="M164.02 103.228L161.004 115.692C160.755 116.723 160.629 117.779 160.629 118.839V135.395C160.629 138.896 163.467 141.735 166.968 141.735H254.517C258.018 141.735 260.857 138.896 260.857 135.395V119.075C258.173 121.306 255.612 118.667 253.723 115.205C252.096 112.224 248.381 110.686 245.435 112.377C242.833 113.871 239.51 112.894 238.13 110.229L235.719 105.573C234.244 102.726 230.875 101.428 227.871 102.55L223.98 104.004C221.987 104.748 219.742 104.205 218.31 102.632C215.633 99.692 210.781 100.717 209.523 104.489L206.006 115.03C205.262 117.262 202.157 117.399 201.219 115.241C200.701 114.048 199.371 113.432 198.126 113.808L196.915 114.172C195.093 114.722 193.136 113.906 192.243 112.225L189.998 108C188.863 105.864 185.972 105.46 184.296 107.205C182.674 108.893 179.89 108.578 178.685 106.57L175.617 101.457C172.699 96.5939 165.353 97.7157 164.02 103.228Z" fill="url(#paint0_linear_3566_3798)"/>
<path d="M21.089 122.214L25.8267 115.167C26.0454 114.835 26.1941 114.546 26.2729 114.301C26.3603 114.056 26.4041 113.828 26.4041 113.618C26.4041 113.05 26.2029 112.569 25.8004 112.175C25.3979 111.781 24.908 111.584 24.3306 111.584C23.7531 111.584 23.2632 111.781 22.8607 112.175C22.467 112.569 22.2702 113.05 22.2702 113.618C22.2702 114.248 22.537 114.778 23.0707 115.206H21.2728C20.9928 114.673 20.8528 114.143 20.8528 113.618C20.8528 112.98 21.0103 112.407 21.3253 111.899C21.6402 111.392 22.0602 110.989 22.5851 110.692C23.1188 110.394 23.705 110.246 24.3437 110.246C24.9824 110.246 25.5642 110.394 26.0891 110.692C26.6141 110.989 27.034 111.392 27.349 111.899C27.664 112.407 27.8214 112.98 27.8214 113.618C27.8214 113.995 27.7602 114.366 27.6377 114.734C27.5152 115.093 27.3009 115.491 26.9946 115.928L23.5825 120.876H28.0445V122.214H21.089ZM33.8521 122.372C33.0997 122.372 32.4085 122.197 31.7786 121.847C31.1574 121.497 30.6675 121.016 30.3088 120.403L31.1749 118.684C31.2712 119.358 31.5686 119.918 32.0673 120.364C32.5748 120.81 33.1697 121.033 33.8521 121.033C34.3508 121.033 34.8014 120.915 35.2038 120.679C35.615 120.434 35.9388 120.11 36.175 119.708C36.4112 119.305 36.5293 118.855 36.5293 118.356C36.5293 117.866 36.4068 117.42 36.1619 117.017C35.9256 116.606 35.6063 116.283 35.2038 116.046C34.8014 115.801 34.3508 115.679 33.8521 115.679C33.6071 115.679 33.3753 115.709 33.1566 115.771C32.9466 115.832 32.7541 115.911 32.5791 116.007L34.8233 111.663H31.1749V110.403H37.0018L34.7839 114.537C35.3701 114.651 35.8994 114.887 36.3718 115.246C36.853 115.604 37.2336 116.051 37.5136 116.584C37.8023 117.109 37.9467 117.7 37.9467 118.356C37.9467 119.108 37.7629 119.791 37.3955 120.403C37.028 121.007 36.5337 121.488 35.9125 121.847C35.2913 122.197 34.6045 122.372 33.8521 122.372ZM39.2791 124.183C39.6728 123.693 39.9878 123.124 40.224 122.477C40.469 121.829 40.5915 121.086 40.5915 120.246H42.0088C42.0088 120.989 41.9038 121.689 41.6939 122.346C41.4926 123.011 41.2127 123.623 40.8539 124.183H39.2791ZM44.4236 122.214L49.6467 111.742H44.0036V110.403H51.8646L46.0246 122.214H44.4236ZM57.5016 122.372C56.7579 122.372 56.0755 122.197 55.4543 121.847C54.8331 121.488 54.3344 121.007 53.9582 120.403C53.5908 119.8 53.407 119.122 53.407 118.369C53.407 117.59 53.6039 116.895 53.9976 116.283C54.4001 115.661 54.9206 115.189 55.5593 114.865C55.3056 114.62 55.1044 114.34 54.9556 114.025C54.8069 113.71 54.7325 113.356 54.7325 112.962C54.7325 112.446 54.855 111.987 55.1 111.584C55.3537 111.173 55.6905 110.849 56.1105 110.613C56.5304 110.368 56.9941 110.246 57.5016 110.246C58.009 110.246 58.4727 110.368 58.8927 110.613C59.3126 110.849 59.6451 111.173 59.8901 111.584C60.1438 111.987 60.2707 112.446 60.2707 112.962C60.2707 113.356 60.1963 113.715 60.0476 114.038C59.8988 114.353 59.6976 114.629 59.4439 114.865C60.0826 115.189 60.5988 115.661 60.9925 116.283C61.3949 116.895 61.5961 117.59 61.5961 118.369C61.5961 119.122 61.408 119.8 61.0318 120.403C60.6644 121.007 60.17 121.488 59.5489 121.847C58.9277 122.197 58.2453 122.372 57.5016 122.372ZM57.5016 121.033C58.0003 121.033 58.4509 120.915 58.8533 120.679C59.2645 120.434 59.5882 120.11 59.8245 119.708C60.0607 119.305 60.1788 118.855 60.1788 118.356C60.1788 117.857 60.0607 117.407 59.8245 117.004C59.5882 116.593 59.2645 116.269 58.8533 116.033C58.4509 115.797 58.0003 115.679 57.5016 115.679C57.0029 115.679 56.5523 115.797 56.1499 116.033C55.7474 116.269 55.4237 116.593 55.1787 117.004C54.9425 117.407 54.8244 117.857 54.8244 118.356C54.8244 118.855 54.9425 119.305 55.1787 119.708C55.4237 120.11 55.7474 120.434 56.1499 120.679C56.5523 120.915 57.0029 121.033 57.5016 121.033ZM57.5016 114.524C57.9215 114.524 58.2759 114.38 58.5646 114.091C58.8621 113.793 59.0108 113.435 59.0108 113.015C59.0108 112.595 58.8621 112.24 58.5646 111.952C58.2759 111.654 57.9215 111.506 57.5016 111.506C57.0816 111.506 56.7229 111.654 56.4255 111.952C56.1367 112.24 55.9924 112.595 55.9924 113.015C55.9924 113.435 56.1367 113.793 56.4255 114.091C56.7229 114.38 57.0816 114.524 57.5016 114.524ZM64.0966 122.214L69.3198 111.742H63.6766V110.403H71.5376L65.6977 122.214H64.0966ZM72.332 124.183C72.7257 123.693 73.0407 123.124 73.2769 122.477C73.5219 121.829 73.6444 121.086 73.6444 120.246H75.0617C75.0617 120.989 74.9567 121.689 74.7468 122.346C74.5455 123.011 74.2656 123.623 73.9069 124.183H72.332ZM77.4765 122.214L82.6996 111.742H77.0565V110.403H84.9175L79.0775 122.214H77.4765ZM90.1214 122.372C89.369 122.372 88.6778 122.197 88.0479 121.847C87.4267 121.497 86.9368 121.016 86.5781 120.403L87.4442 118.684C87.5405 119.358 87.8379 119.918 88.3366 120.364C88.8441 120.81 89.439 121.033 90.1214 121.033C90.6114 121.033 91.0576 120.915 91.46 120.679C91.8712 120.434 92.195 120.11 92.4312 119.708C92.6761 119.305 92.7986 118.859 92.7986 118.369C92.7986 117.879 92.6761 117.433 92.4312 117.031C92.1862 116.628 91.8581 116.309 91.4469 116.073C91.0445 115.828 90.5895 115.705 90.0821 115.705C89.6446 115.705 89.2334 115.806 88.8484 116.007C88.4722 116.199 88.1616 116.462 87.9167 116.794V110.403H93.2448V111.742H89.2028V114.655C89.3778 114.576 89.5571 114.524 89.7408 114.498C89.9333 114.463 90.1171 114.445 90.292 114.445C91.0007 114.445 91.6525 114.616 92.2474 114.957C92.8424 115.298 93.3192 115.766 93.6779 116.361C94.0366 116.947 94.216 117.617 94.216 118.369C94.216 119.122 94.0279 119.8 93.6517 120.403C93.2755 121.007 92.7768 121.488 92.1556 121.847C91.5431 122.197 90.8651 122.372 90.1214 122.372ZM100.391 122.372C99.6998 122.372 99.0962 122.201 98.58 121.86C98.0638 121.51 97.6307 121.046 97.2807 120.469C96.9395 119.883 96.6814 119.231 96.5064 118.514C96.3402 117.787 96.2571 117.052 96.2571 116.309C96.2571 115.565 96.3402 114.835 96.5064 114.117C96.6814 113.391 96.9395 112.739 97.2807 112.162C97.6307 111.576 98.0638 111.112 98.58 110.771C99.0962 110.421 99.6998 110.246 100.391 110.246C101.082 110.246 101.686 110.421 102.202 110.771C102.718 111.112 103.147 111.576 103.488 112.162C103.838 112.739 104.096 113.391 104.262 114.117C104.437 114.835 104.525 115.565 104.525 116.309C104.525 117.052 104.437 117.787 104.262 118.514C104.096 119.231 103.838 119.883 103.488 120.469C103.147 121.046 102.718 121.51 102.202 121.86C101.686 122.201 101.082 122.372 100.391 122.372ZM100.391 121.033C100.855 121.033 101.253 120.893 101.585 120.613C101.918 120.333 102.189 119.961 102.399 119.498C102.609 119.034 102.766 118.527 102.871 117.975C102.976 117.416 103.029 116.86 103.029 116.309C103.029 115.758 102.976 115.206 102.871 114.655C102.766 114.095 102.609 113.583 102.399 113.12C102.189 112.656 101.918 112.284 101.585 112.004C101.253 111.724 100.855 111.584 100.391 111.584C99.9361 111.584 99.538 111.724 99.1968 112.004C98.8643 112.284 98.5931 112.656 98.3831 113.12C98.1731 113.583 98.0157 114.095 97.9107 114.655C97.8057 115.206 97.7532 115.758 97.7532 116.309C97.7532 116.86 97.8057 117.416 97.9107 117.975C98.0157 118.527 98.1731 119.034 98.3831 119.498C98.5931 119.961 98.8643 120.333 99.1968 120.613C99.538 120.893 99.9361 121.033 100.391 121.033Z" fill="#222225"/>
<path d="M111.275 115.738V112.785H108.355V111.801H111.275V108.848H112.325V111.801H115.245V112.785H112.325V115.738H111.275ZM117.668 117.214V116.23H119.943V108.925L117.668 110.084V108.903L121.146 107.153V116.23H122.983V117.214H117.668ZM128.195 117.346C127.575 117.346 127.006 117.2 126.488 116.908C125.971 116.609 125.555 116.208 125.242 115.705C124.936 115.202 124.782 114.637 124.782 114.01C124.782 113.361 124.946 112.782 125.275 112.271C125.61 111.753 126.044 111.36 126.576 111.09C126.365 110.886 126.197 110.653 126.073 110.39C125.949 110.128 125.887 109.832 125.887 109.504C125.887 109.074 125.989 108.691 126.193 108.356C126.405 108.013 126.685 107.744 127.035 107.547C127.385 107.343 127.772 107.24 128.195 107.24C128.617 107.24 129.004 107.343 129.354 107.547C129.704 107.744 129.981 108.013 130.185 108.356C130.396 108.691 130.502 109.074 130.502 109.504C130.502 109.832 130.44 110.131 130.316 110.401C130.192 110.664 130.025 110.893 129.813 111.09C130.345 111.36 130.775 111.753 131.104 112.271C131.439 112.782 131.607 113.361 131.607 114.01C131.607 114.637 131.45 115.202 131.136 115.705C130.83 116.208 130.418 116.609 129.901 116.908C129.383 117.2 128.814 117.346 128.195 117.346ZM128.195 116.23C128.61 116.23 128.986 116.132 129.321 115.935C129.664 115.731 129.933 115.461 130.13 115.126C130.327 114.79 130.426 114.415 130.426 113.999C130.426 113.584 130.327 113.208 130.13 112.873C129.933 112.53 129.664 112.26 129.321 112.063C128.986 111.867 128.61 111.768 128.195 111.768C127.779 111.768 127.403 111.867 127.068 112.063C126.733 112.26 126.463 112.53 126.259 112.873C126.062 113.208 125.964 113.584 125.964 113.999C125.964 114.415 126.062 114.79 126.259 115.126C126.463 115.461 126.733 115.731 127.068 115.935C127.403 116.132 127.779 116.23 128.195 116.23ZM128.195 110.806C128.544 110.806 128.84 110.685 129.08 110.445C129.328 110.197 129.452 109.898 129.452 109.548C129.452 109.198 129.328 108.903 129.08 108.662C128.84 108.414 128.544 108.29 128.195 108.29C127.845 108.29 127.546 108.414 127.298 108.662C127.057 108.903 126.937 109.198 126.937 109.548C126.937 109.898 127.057 110.197 127.298 110.445C127.546 110.685 127.845 110.806 128.195 110.806ZM134.915 112.752C134.449 112.752 134.059 112.617 133.745 112.348C133.432 112.078 133.198 111.732 133.045 111.309C132.892 110.886 132.815 110.448 132.815 109.996C132.815 109.544 132.892 109.107 133.045 108.684C133.198 108.261 133.432 107.915 133.745 107.645C134.059 107.375 134.449 107.24 134.915 107.24C135.389 107.24 135.779 107.375 136.085 107.645C136.399 107.915 136.632 108.261 136.785 108.684C136.938 109.107 137.015 109.544 137.015 109.996C137.015 110.448 136.938 110.886 136.785 111.309C136.632 111.732 136.399 112.078 136.085 112.348C135.779 112.617 135.389 112.752 134.915 112.752ZM134.915 111.877C135.185 111.877 135.4 111.783 135.56 111.593C135.721 111.404 135.838 111.163 135.91 110.871C135.991 110.58 136.031 110.288 136.031 109.996C136.031 109.697 135.991 109.406 135.91 109.121C135.838 108.83 135.721 108.589 135.56 108.4C135.4 108.21 135.185 108.115 134.915 108.115C134.653 108.115 134.438 108.21 134.27 108.4C134.11 108.589 133.989 108.83 133.909 109.121C133.836 109.406 133.8 109.697 133.8 109.996C133.8 110.288 133.836 110.58 133.909 110.871C133.989 111.163 134.11 111.404 134.27 111.593C134.438 111.783 134.653 111.877 134.915 111.877ZM134.325 117.214L141.083 107.372H142.068L135.309 117.214H134.325ZM141.477 117.346C141.01 117.346 140.62 117.211 140.307 116.941C139.993 116.671 139.76 116.325 139.607 115.902C139.454 115.479 139.377 115.042 139.377 114.59C139.377 114.138 139.454 113.7 139.607 113.277C139.76 112.854 139.993 112.508 140.307 112.238C140.62 111.969 141.01 111.834 141.477 111.834C141.951 111.834 142.341 111.969 142.647 112.238C142.961 112.508 143.194 112.854 143.347 113.277C143.5 113.7 143.577 114.138 143.577 114.59C143.577 115.042 143.5 115.479 143.347 115.902C143.194 116.325 142.961 116.671 142.647 116.941C142.341 117.211 141.951 117.346 141.477 117.346ZM141.477 116.471C141.747 116.471 141.962 116.376 142.122 116.186C142.283 115.997 142.399 115.756 142.472 115.465C142.552 115.173 142.593 114.881 142.593 114.59C142.593 114.291 142.552 113.999 142.472 113.715C142.399 113.423 142.283 113.183 142.122 112.993C141.962 112.803 141.747 112.709 141.477 112.709C141.215 112.709 140.999 112.803 140.832 112.993C140.671 113.183 140.551 113.423 140.471 113.715C140.398 113.999 140.361 114.291 140.361 114.59C140.361 114.881 140.398 115.173 140.471 115.465C140.551 115.756 140.671 115.997 140.832 116.186C140.999 116.376 141.215 116.471 141.477 116.471Z" fill="#00C2A8"/>
<defs>
<linearGradient id="paint0_linear_3566_3798" x1="210.743" y1="88.1904" x2="210.743" y2="141.735" gradientUnits="userSpaceOnUse">
<stop stop-color="#00C2A8"/>
<stop offset="1" stop-color="#D9D9D9" stop-opacity="0"/>
</linearGradient>
</defs>
</svg>
