<svg width="222" height="123" viewBox="0 0 222 123" fill="none" xmlns="http://www.w3.org/2000/svg">
<rect y="70.917" width="4.99416" height="51.9393" rx="2.49708" fill="#00C2A8"/>
<rect x="118.223" y="60.9287" width="4.9915" height="61.9276" rx="2.49575" fill="#00C2A8"/>
<rect x="59.1094" y="19.9761" width="4.99416" height="102.88" rx="2.49708" fill="#00C2A8"/>
<rect x="177.336" y="29.9648" width="4.99416" height="92.8914" rx="2.49708" fill="#00C2A8"/>
<rect x="39.4062" y="88.896" width="4.9915" height="33.9603" rx="2.49575" fill="#00C2A8"/>
<rect x="157.629" y="81.9038" width="4.99416" height="40.9521" rx="2.49708" fill="#00C2A8"/>
<rect x="98.5195" y="36.9565" width="4.99416" height="85.8995" rx="2.49708" fill="#00C2A8"/>
<rect x="216.746" width="4.9915" height="122.856" rx="2.49575" fill="#00C2A8"/>
<rect x="19.7031" y="33.96" width="4.9915" height="88.896" rx="2.49575" fill="#599FB3"/>
<rect x="137.926" y="15.981" width="4.99416" height="106.875" rx="2.49708" fill="#599FB3"/>
<rect x="78.8125" y="64.9238" width="4.99416" height="57.9323" rx="2.49708" fill="#599FB3"/>
<rect x="197.039" y="53.937" width="4.99416" height="68.9194" rx="2.49708" fill="#599FB3"/>
</svg>
