<svg width="208" height="210" viewBox="0 0 208 210" fill="none" xmlns="http://www.w3.org/2000/svg">
<g filter="url(#filter0_d_3564_3561)">
<rect x="18.4805" y="11.5898" width="170.203" height="172.744" rx="18.3567" fill="#FF0000" fill-opacity="0.01" shape-rendering="crispEdges"/>
</g>
<rect x="13.3477" y="6.23877" width="178.616" height="182.578" rx="17.8567" fill="white" stroke="#EFF0F7"/>
<rect x="62.918" y="140.952" width="79.4758" height="8.45" rx="4.225" fill="#D9DBE9"/>
<path fill-rule="evenodd" clip-rule="evenodd" d="M103.438 65.5901C95.2393 65.5901 87.1206 67.205 79.5457 70.3426C71.9709 73.4802 65.0882 78.079 59.2906 83.8766C53.4931 89.6741 48.8942 96.5568 45.7566 104.132C42.619 111.707 41.0041 119.825 41.0041 128.024C41.0041 130.328 39.1363 132.196 36.8321 132.196C34.528 132.196 32.6602 130.328 32.6602 128.024C32.6602 118.729 34.4909 109.526 38.0478 100.939C41.6047 92.3514 46.8182 84.5489 53.3906 77.9765C59.9629 71.4042 67.7654 66.1907 76.3526 62.6338C84.9398 59.0768 94.1435 57.2461 103.438 57.2461C112.733 57.2461 121.937 59.0768 130.524 62.6338C139.111 66.1907 146.914 71.4042 153.486 77.9765C160.058 84.5489 165.272 92.3514 168.829 100.939C172.386 109.526 174.216 118.729 174.216 128.024C174.216 130.328 172.348 132.196 170.044 132.196C167.74 132.196 165.872 130.328 165.872 128.024C165.872 119.825 164.257 111.707 161.12 104.132C157.982 96.5568 153.383 89.6741 147.586 83.8766C141.788 78.079 134.906 73.4802 127.331 70.3426C119.756 67.205 111.637 65.5901 103.438 65.5901Z" fill="#EFF0F7"/>
<path fill-rule="evenodd" clip-rule="evenodd" d="M105.245 65.6162C94.0877 65.2931 83.0475 67.9673 73.2744 73.3601C63.5013 78.753 55.3526 86.6673 49.6771 96.279C44.0015 105.891 41.0066 116.848 41.0041 128.01C41.0036 130.315 39.1353 132.182 36.8312 132.182C34.5271 132.181 32.6597 130.313 32.6602 128.009C32.6629 115.355 36.0581 102.933 42.4922 92.0364C48.9263 81.1402 58.1639 72.1681 69.2431 66.0546C80.3224 59.941 92.838 56.9095 105.487 57.2758C118.136 57.642 130.455 61.3926 141.162 68.137C143.111 69.3651 143.696 71.9411 142.468 73.8906C141.24 75.8402 138.664 76.4251 136.715 75.1971C127.27 69.2477 116.403 65.9393 105.245 65.6162Z" fill="#00C2A8"/>
<rect x="32.4102" y="21.418" width="40.1617" height="10.4486" rx="5.22429" fill="#D9DBE9"/>
<defs>
<filter id="filter0_d_3564_3561" x="0.000469208" y="-0.000155926" width="207.163" height="209.704" filterUnits="userSpaceOnUse" color-interpolation-filters="sRGB">
<feFlood flood-opacity="0" result="BackgroundImageFix"/>
<feColorMatrix in="SourceAlpha" type="matrix" values="0 0 0 0 0 0 0 0 0 0 0 0 0 0 0 0 0 0 127 0" result="hardAlpha"/>
<feOffset dy="6.89"/>
<feGaussianBlur stdDeviation="9.24"/>
<feComposite in2="hardAlpha" operator="out"/>
<feColorMatrix type="matrix" values="0 0 0 0 0.090196 0 0 0 0 0.0588235 0 0 0 0 0.286275 0 0 0 0.07 0"/>
<feBlend mode="normal" in2="BackgroundImageFix" result="effect1_dropShadow_3564_3561"/>
<feBlend mode="normal" in="SourceGraphic" in2="effect1_dropShadow_3564_3561" result="shape"/>
</filter>
</defs>
</svg>
