<svg width="32" height="32" viewBox="0 0 32 32" fill="none" xmlns="http://www.w3.org/2000/svg">
<rect opacity="0.1" width="32" height="32" rx="14" fill="#00C2A8"/>
<path opacity="0.3" d="M22.7404 16.963C22.7404 18.4866 22.2886 19.9761 21.4421 21.2429C20.5956 22.5098 19.3925 23.4972 17.9848 24.0803C16.5771 24.6634 15.0282 24.8159 13.5338 24.5187C12.0394 24.2214 10.6668 23.4877 9.58937 22.4103C8.51199 21.3329 7.77828 19.9603 7.48103 18.4659C7.18378 16.9715 7.33634 15.4226 7.91942 14.0149C8.50249 12.6072 9.4899 11.4041 10.7568 10.5576C12.0236 9.71109 13.5131 9.25928 15.0367 9.25928V16.963H22.7404Z" fill="#00C2A8"/>
<path d="M16.9625 7.33332C17.9742 7.33332 18.9759 7.53258 19.9106 7.91973C20.8452 8.30687 21.6945 8.87432 22.4098 9.58968C23.1252 10.305 23.6926 11.1543 24.0798 12.0889C24.4669 13.0236 24.6662 14.0254 24.6662 15.037L16.9625 15.037L16.9625 7.33332Z" fill="#00C2A8"/>
</svg>
