<svg width="24" height="24" viewBox="0 0 24 24" fill="none" xmlns="http://www.w3.org/2000/svg">
<path fill-rule="evenodd" clip-rule="evenodd" d="M6 3H18C20.2091 3 22 4.79086 22 7V15C22 17.2091 20.2091 19 18 19H6C3.79086 19 2 17.2091 2 15V7C2 4.79086 3.79086 3 6 3ZM6.6025 9.136C6.25125 8.91647 6.14447 8.45375 6.364 8.1025C6.58353 7.75125 7.04625 7.64447 7.3975 7.864L10.0407 9.516C11.1374 10.2014 11.1374 11.7986 10.0407 12.484L7.3975 14.136C7.04625 14.3555 6.58353 14.2488 6.364 13.8975C6.14447 13.5462 6.25125 13.0835 6.6025 12.864L9.2457 11.212C9.40237 11.1141 9.40237 10.8859 9.2457 10.788L6.6025 9.136ZM12.25 14C12.25 13.5858 12.5858 13.25 13 13.25H17C17.4142 13.25 17.75 13.5858 17.75 14C17.75 14.4142 17.4142 14.75 17 14.75H13C12.5858 14.75 12.25 14.4142 12.25 14Z" fill="white"/>
<path d="M10 19.25C9.58579 19.25 9.25 19.5858 9.25 20C9.25 20.4142 9.58579 20.75 10 20.75H14C14.4142 20.75 14.75 20.4142 14.75 20C14.75 19.5858 14.4142 19.25 14 19.25H10Z" fill="white"/>
</svg>
