<svg width="105" height="104" viewBox="0 0 105 104" fill="none" xmlns="http://www.w3.org/2000/svg">
<g filter="url(#filter0_d_3750_9482)">
<path d="M44.3358 44.7894L39.5183 39.9986L55.1608 24.4443H64.7946L44.3358 44.7894ZM64.7946 38.7978H55.1608L51.552 42.3865L56.3696 47.1772" fill="#42A5F5" fill-opacity="0.8"/>
<path d="M51.552 51.9673L55.1607 55.5559H64.7946L56.3695 47.1777" fill="#0D47A1"/>
<path d="M46.7458 47.18L51.5558 42.3955L56.3658 47.1787L51.5558 51.9632L46.7458 47.18Z" fill="#42A5F5"/>
<path d="M51.5558 51.9629L56.3657 47.1797L57.0372 47.8474L52.2272 52.6306L51.5558 51.9629Z" fill="url(#paint0_linear_3750_9482)"/>
<path d="M51.552 51.9666L58.6999 49.5108L56.3695 47.1758" fill="url(#paint1_linear_3750_9482)"/>
</g>
<defs>
<filter id="filter0_d_3750_9482" x="0" y="0" width="104.313" height="104" filterUnits="userSpaceOnUse" color-interpolation-filters="sRGB">
<feFlood flood-opacity="0" result="BackgroundImageFix"/>
<feColorMatrix in="SourceAlpha" type="matrix" values="0 0 0 0 0 0 0 0 0 0 0 0 0 0 0 0 0 0 127 0" result="hardAlpha"/>
<feOffset dy="12"/>
<feGaussianBlur stdDeviation="12"/>
<feColorMatrix type="matrix" values="0 0 0 0 0.290196 0 0 0 0 0.227451 0 0 0 0 1 0 0 0 0.23 0"/>
<feBlend mode="normal" in2="BackgroundImageFix" result="effect1_dropShadow_3750_9482"/>
<feBlend mode="normal" in="SourceGraphic" in2="effect1_dropShadow_3750_9482" result="shape"/>
</filter>
<linearGradient id="paint0_linear_3750_9482" x1="53.9617" y1="49.5704" x2="54.6294" y2="50.2419" gradientUnits="userSpaceOnUse">
<stop offset="0.2" stop-opacity="0.15"/>
<stop offset="0.85" stop-color="#616161" stop-opacity="0.01"/>
</linearGradient>
<linearGradient id="paint1_linear_3750_9482" x1="51.5537" y1="49.5713" x2="58.7015" y2="49.5713" gradientUnits="userSpaceOnUse">
<stop offset="0.2" stop-opacity="0.55"/>
<stop offset="0.85" stop-color="#616161" stop-opacity="0.01"/>
</linearGradient>
</defs>
</svg>
