<svg width="46" height="46" viewBox="0 0 46 46" fill="none" xmlns="http://www.w3.org/2000/svg">
<rect opacity="0.1" width="45.9871" height="45.9871" rx="13.4129" fill="#00C2A8"/>
<path d="M22.5 13.3052C18.0817 13.3052 14.5 16.8052 14.5 21.3052C14.5 24.7323 16.82 26.9994 17.9263 27.8856C18.2725 28.163 18.5 28.5747 18.5 29.0184C18.5 29.7291 19.0761 30.3052 19.7868 30.3052H25.2132C25.9239 30.3052 26.5 29.7291 26.5 29.0184C26.5 28.5747 26.7275 28.163 27.0737 27.8856C28.18 26.9994 30.5 24.7323 30.5 21.3052C30.5 16.8052 26.9183 13.3052 22.5 13.3052Z" fill="#00C2A8"/>
<path d="M19.6233 31.0654C19.2147 30.9973 18.8283 31.2733 18.7602 31.6819C18.6921 32.0905 18.9681 32.4769 19.3767 32.545C21.4446 32.8896 23.5554 32.8896 25.6233 32.545C26.0319 32.4769 26.3079 32.0905 26.2398 31.6819C26.1717 31.2733 25.7853 30.9973 25.3767 31.0654C23.472 31.3828 21.528 31.3828 19.6233 31.0654Z" fill="#00C2A8"/>
</svg>
