<svg width="46" height="46" viewBox="0 0 46 46" fill="none" xmlns="http://www.w3.org/2000/svg">
<rect opacity="0.1" width="45.9871" height="45.9871" rx="13.4129" fill="#00C2A8"/>
<path fill-rule="evenodd" clip-rule="evenodd" d="M17.3223 14.2134H29.3223C31.5314 14.2134 33.3223 16.0042 33.3223 18.2134V26.2134C33.3223 28.4225 31.5314 30.2134 29.3223 30.2134H17.3223C15.1131 30.2134 13.3223 28.4225 13.3223 26.2134V18.2134C13.3223 16.0042 15.1131 14.2134 17.3223 14.2134ZM17.9248 20.3494C17.5735 20.1298 17.4667 19.6671 17.6863 19.3159C17.9058 18.9646 18.3685 18.8578 18.7198 19.0774L21.363 20.7294C22.4596 21.4148 22.4596 23.012 21.363 23.6974L18.7198 25.3494C18.3685 25.5689 17.9058 25.4621 17.6863 25.1109C17.4667 24.7596 17.5735 24.2969 17.9248 24.0774L20.568 22.4254C20.7246 22.3275 20.7246 22.0993 20.568 22.0014L17.9248 20.3494ZM23.5723 25.2134C23.5723 24.7992 23.9081 24.4634 24.3223 24.4634H28.3223C28.7365 24.4634 29.0723 24.7992 29.0723 25.2134C29.0723 25.6276 28.7365 25.9634 28.3223 25.9634H24.3223C23.9081 25.9634 23.5723 25.6276 23.5723 25.2134Z" fill="#00C2A8"/>
<path d="M21.3223 30.4634C20.9081 30.4634 20.5723 30.7992 20.5723 31.2134C20.5723 31.6276 20.9081 31.9634 21.3223 31.9634H25.3223C25.7365 31.9634 26.0723 31.6276 26.0723 31.2134C26.0723 30.7992 25.7365 30.4634 25.3223 30.4634H21.3223Z" fill="#00C2A8"/>
</svg>
