<svg width="46" height="46" viewBox="0 0 46 46" fill="none" xmlns="http://www.w3.org/2000/svg">
<rect opacity="0.1" width="45.9871" height="45.9871" rx="13.4129" fill="#00C2A8"/>
<path d="M25.1026 14.2437C25.3955 13.9508 25.3955 13.4759 25.1026 13.183C24.8097 12.8902 24.3348 12.8902 24.0419 13.183L21.5419 15.6831C21.5192 15.7058 21.4981 15.7298 21.4786 15.755C21.3942 15.8643 21.3392 15.9974 21.3256 16.1426C21.3234 16.1661 21.3223 16.1897 21.3223 16.2134C21.3223 16.3755 21.3748 16.5323 21.4704 16.6609C21.492 16.69 21.5159 16.7177 21.5419 16.7437L24.0419 19.2437C24.3348 19.5366 24.8097 19.5366 25.1026 19.2437C25.3955 18.9508 25.3955 18.4759 25.1026 18.183L23.8829 16.9634H25.0723C26.8672 16.9634 28.3223 18.4185 28.3223 20.2134V27.2134C28.3223 27.2449 28.3243 27.2759 28.328 27.3064C27.0312 27.6374 26.0723 28.8134 26.0723 30.2134C26.0723 31.8702 27.4154 33.2134 29.0723 33.2134C30.7291 33.2134 32.0723 31.8702 32.0723 30.2134C32.0723 28.8135 31.1134 27.6375 29.8166 27.3064C29.8204 27.2759 29.8223 27.2449 29.8223 27.2134V20.2134C29.8223 17.59 27.6957 15.4634 25.0723 15.4634H23.8829L25.1026 14.2437Z" fill="#00C2A8"/>
<path d="M17.8223 19.1189C19.1162 18.7858 20.0723 17.6113 20.0723 16.2134C20.0723 14.5565 18.7291 13.2134 17.0723 13.2134C15.4154 13.2134 14.0723 14.5565 14.0723 16.2134C14.0723 17.6113 15.0283 18.7858 16.3223 19.1189V27.3079C15.0283 27.6409 14.0723 28.8155 14.0723 30.2134C14.0723 31.8702 15.4154 33.2134 17.0723 33.2134C18.7291 33.2134 20.0723 31.8702 20.0723 30.2134C20.0723 28.8155 19.1162 27.6409 17.8223 27.3079V19.1189Z" fill="#00C2A8"/>
</svg>
