<svg width="46" height="46" viewBox="0 0 46 46" fill="none" xmlns="http://www.w3.org/2000/svg">
<rect opacity="0.1" width="45.9871" height="45.9871" rx="13.4129" fill="#00C2A8"/>
<path fill-rule="evenodd" clip-rule="evenodd" d="M26.1964 14.0839C26.3502 13.6993 26.1631 13.2629 25.7785 13.109C25.394 12.9552 24.9575 13.1422 24.8036 13.5268L24.1654 15.1225C24.162 15.1308 24.1586 15.1348 24.1558 15.1373C24.1522 15.1406 24.1468 15.1439 24.1399 15.146C24.133 15.1482 24.1267 15.1485 24.1219 15.1478C24.1182 15.1473 24.1131 15.146 24.1056 15.1411C23.3739 14.6533 22.3829 14.8761 21.9305 15.6302L20.9254 17.3054H19.5C17.6362 17.3054 16.7044 17.3054 15.9693 17.6099C14.9892 18.0158 14.2105 18.7945 13.8045 19.7746C13.5 20.5097 13.5 21.4416 13.5 23.3054C13.5 26.101 13.5 27.4988 13.9567 28.6015C14.5657 30.0716 15.7337 31.2397 17.2039 31.8487C18.3065 32.3054 19.7044 32.3054 22.5 32.3054C25.2956 32.3054 26.6935 32.3054 27.7961 31.8487C29.2663 31.2397 30.4343 30.0716 31.0433 28.6015C31.5 27.4988 31.5 26.101 31.5 23.3054C31.5 21.4416 31.5 20.5097 31.1955 19.7746C30.7895 18.7945 30.0108 18.0158 29.0307 17.6099C28.2956 17.3054 27.3638 17.3054 25.5 17.3054H22.6746L23.2167 16.4019C23.2285 16.3822 23.2544 16.3764 23.2736 16.3892C24.0876 16.9318 25.1947 16.588 25.5581 15.6796L26.1964 14.0839ZM19 25.3054C19.8284 25.3054 20.5 24.6338 20.5 23.8054C20.5 22.9769 19.8284 22.3054 19 22.3054C18.1716 22.3054 17.5 22.9769 17.5 23.8054C17.5 24.6338 18.1716 25.3054 19 25.3054ZM27.5 23.8054C27.5 24.6338 26.8284 25.3054 26 25.3054C25.1716 25.3054 24.5 24.6338 24.5 23.8054C24.5 22.9769 25.1716 22.3054 26 22.3054C26.8284 22.3054 27.5 22.9769 27.5 23.8054ZM19.8292 26.97C20.0144 26.5995 20.4649 26.4493 20.8354 26.6346L21.0466 26.7401C21.9615 27.1976 23.0385 27.1976 23.9534 26.7401L24.1646 26.6346C24.5351 26.4493 24.9856 26.5995 25.1708 26.97C25.3561 27.3404 25.2059 27.791 24.8354 27.9762L24.6243 28.0818C23.287 28.7504 21.713 28.7504 20.3757 28.0818L20.1646 27.9762C19.7941 27.791 19.6439 27.3404 19.8292 26.97Z" fill="#00C2A8"/>
</svg>
