<svg width="48" height="48" viewBox="0 0 48 48" fill="none" xmlns="http://www.w3.org/2000/svg">
<rect opacity="0.1" width="48" height="48" rx="14" fill="#00C2A8"/>
<path d="M23.6664 24C26.1517 24 28.1664 21.9853 28.1664 19.5C28.1664 17.0147 26.1517 15 23.6664 15C21.1811 15 19.1664 17.0147 19.1664 19.5C19.1664 21.9853 21.1811 24 23.6664 24Z" fill="#00C2A8"/>
<path d="M23.6664 33C27.6429 33 30.8664 31.1867 30.8664 28.95C30.8664 26.7132 27.6429 24.9 23.6664 24.9C19.69 24.9 16.4664 26.7132 16.4664 28.95C16.4664 31.1867 19.69 33 23.6664 33Z" fill="#00C2A8"/>
<path d="M30.1664 19.5001C30.1664 19.0596 30.024 18.6523 29.7827 18.3219C29.5607 18.0178 29.2548 17.7787 28.8992 17.6386L28.8738 17.6283C28.8285 17.6095 28.7838 17.5883 28.7403 17.5649C28.6943 17.5402 28.6496 17.513 28.6068 17.4835C28.3542 17.3096 28.1664 17.0546 28.1664 16.7501C28.1664 16.3359 28.5062 15.9917 28.911 16.0794C30.1097 16.3391 31.0796 17.213 31.4748 18.355C31.599 18.7138 31.6664 19.0991 31.6664 19.5001C31.6664 19.9011 31.599 20.2863 31.4748 20.6451C31.0796 21.7872 30.1097 22.661 28.911 22.9207C28.5062 23.0084 28.1664 22.6643 28.1664 22.2501C28.1664 21.9455 28.3542 21.6906 28.6068 21.5166C28.6496 21.4871 28.6943 21.4599 28.7403 21.4352C28.7838 21.4118 28.8285 21.3907 28.8738 21.3719L28.8992 21.3616C29.2548 21.2215 29.5607 20.9824 29.7827 20.6783C30.024 20.3478 30.1664 19.9406 30.1664 19.5001Z" fill="#00C2A8"/>
<path d="M32.1664 28.5001C32.1664 28.5873 32.1206 28.7844 31.891 29.0374C31.8064 29.1307 31.6967 29.2316 31.5552 29.3374C31.5292 29.3568 31.5042 29.3773 31.4802 29.3988C31.4556 29.4208 31.4322 29.4439 31.4099 29.4679C31.2611 29.6286 31.1664 29.8328 31.1664 30.0541C31.1664 30.6263 31.7537 31.013 32.2296 30.6951C32.3065 30.6437 32.3807 30.5912 32.4523 30.5375L32.481 30.5158C32.6966 30.3512 32.8865 30.1762 33.0477 29.9924C33.4445 29.5398 33.6664 29.0339 33.6664 28.5001C33.6664 27.9663 33.4445 27.4604 33.0476 27.0077C32.8865 26.824 32.6966 26.649 32.481 26.4844L32.4523 26.4627C32.3807 26.409 32.3065 26.3564 32.2296 26.3051C31.7537 25.9872 31.1664 26.3739 31.1664 26.9461C31.1664 27.1674 31.2611 27.3716 31.4099 27.5322C31.4322 27.5563 31.4556 27.5793 31.4802 27.6014C31.5042 27.6229 31.5292 27.6434 31.5552 27.6627C31.6967 27.7686 31.8064 27.8695 31.891 27.9628C32.1206 28.2158 32.1664 28.4129 32.1664 28.5001Z" fill="#00C2A8"/>
<path d="M17.1664 19.4998C17.1664 19.0593 17.3088 18.6521 17.5501 18.3216C17.7722 18.0175 18.078 17.7784 18.4336 17.6383L18.459 17.6281C18.5043 17.6092 18.549 17.5881 18.5925 17.5647C18.6385 17.54 18.6832 17.5128 18.726 17.4833C18.9786 17.3093 19.1664 17.0544 19.1664 16.7498C19.1664 16.3356 18.8267 15.9915 18.4218 16.0792C17.2231 16.3389 16.2532 17.2127 15.858 18.3548C15.7338 18.7136 15.6664 19.0988 15.6664 19.4998C15.6664 19.9008 15.7338 20.2861 15.858 20.6449C16.2532 21.787 17.2231 22.6608 18.4218 22.9205C18.8267 23.0082 19.1664 22.664 19.1664 22.2498C19.1664 21.9453 18.9786 21.6904 18.726 21.5164C18.6832 21.4869 18.6385 21.4597 18.5925 21.435C18.549 21.4116 18.5043 21.3904 18.459 21.3716L18.4336 21.3613C18.078 21.2212 17.7722 20.9822 17.5501 20.678C17.3088 20.3476 17.1664 19.9403 17.1664 19.4998Z" fill="#00C2A8"/>
<path d="M15.1664 28.4998C15.1664 28.587 15.2122 28.7841 15.4418 29.0372C15.5264 29.1305 15.6361 29.2314 15.7776 29.3372C15.8036 29.3566 15.8286 29.3771 15.8526 29.3986C15.8772 29.4206 15.9007 29.4437 15.9229 29.4677C16.0717 29.6283 16.1664 29.8326 16.1664 30.0538C16.1664 30.6261 15.5791 31.0127 15.1033 30.6949C15.0263 30.6435 14.9521 30.5909 14.8806 30.5372L14.8519 30.5155C14.6362 30.351 14.4463 30.176 14.2852 29.9922C13.8883 29.5395 13.6664 29.0336 13.6664 28.4998C13.6664 27.966 13.8883 27.4602 14.2852 27.0075C14.4463 26.8237 14.6362 26.6487 14.8519 26.4842L14.8806 26.4624C14.9521 26.4088 15.0263 26.3562 15.1033 26.3048C15.5791 25.987 16.1664 26.3736 16.1664 26.9459C16.1664 27.1671 16.0717 27.3714 15.9229 27.532C15.9007 27.556 15.8772 27.5791 15.8526 27.6011C15.8286 27.6226 15.8036 27.6431 15.7776 27.6625C15.6361 27.7683 15.5264 27.8692 15.4418 27.9625C15.2122 28.2156 15.1664 28.4127 15.1664 28.4998Z" fill="#00C2A8"/>
</svg>
