<svg width="48" height="48" viewBox="0 0 48 48" fill="none" xmlns="http://www.w3.org/2000/svg">
<rect opacity="0.1" width="48" height="48" rx="14" fill="#00C2A8"/>
<path fill-rule="evenodd" clip-rule="evenodd" d="M33.6665 24C33.6665 20.2615 33.6665 18.3923 32.8627 17C32.336 16.0879 31.5786 15.3305 30.6665 14.8038C29.2742 14 27.405 14 23.6665 14C19.928 14 18.0588 14 16.6665 14.8038C15.7544 15.3305 14.997 16.0879 14.4704 17C13.6665 18.3923 13.6665 20.2615 13.6665 24C13.6665 27.7385 13.6665 29.6077 14.4704 31C14.997 31.9121 15.7544 32.6695 16.6665 33.1962C18.0588 34 19.928 34 23.6665 34C27.405 34 29.2742 34 30.6665 33.1962C31.5786 32.6695 32.336 31.9121 32.8627 31C33.6665 29.6077 33.6665 27.7385 33.6665 24ZM24.6665 20.6641C24.2523 20.6641 23.9165 20.9998 23.9165 21.4141C23.9165 21.8283 24.2523 22.1641 24.6665 22.1641H25.6701L23.6665 24.1676L22.6968 23.198C22.5562 23.0573 22.3654 22.9783 22.1665 22.9783C21.9676 22.9783 21.7768 23.0573 21.6362 23.198L18.1362 26.698C17.8433 26.9909 17.8433 27.4657 18.1362 27.7586C18.4291 28.0515 18.9039 28.0515 19.1968 27.7586L22.1665 24.789L23.1362 25.7586C23.4291 26.0515 23.9039 26.0515 24.1968 25.7586L26.7449 23.2105V24.2425C26.7449 24.6567 27.0807 24.9925 27.4949 24.9925C27.9091 24.9925 28.2449 24.6567 28.2449 24.2425V21.4141C28.2449 20.9998 27.9091 20.6641 27.4949 20.6641H24.6665Z" fill="#00C2A8"/>
</svg>
