<svg width="48" height="48" viewBox="0 0 48 48" fill="none" xmlns="http://www.w3.org/2000/svg">
<rect opacity="0.1" width="48" height="48" rx="14" fill="#00C2A8"/>
<path fill-rule="evenodd" clip-rule="evenodd" d="M27 14.5C27.4142 14.5 27.75 14.8358 27.75 15.25C27.75 15.6642 27.4142 16 27 16H24.75V17.5352C28.8166 17.9133 32 21.3346 32 25.5C32 29.9183 28.4183 33.5 24 33.5C19.5817 33.5 16 29.9183 16 25.5C16 21.3346 19.1834 17.9133 23.25 17.5352V16H21C20.5858 16 20.25 15.6642 20.25 15.25C20.25 14.8358 20.5858 14.5 21 14.5H27ZM24 22C23.5858 22 23.25 22.3358 23.25 22.75V26.25C23.25 26.6642 23.5858 27 24 27H26C26.4142 27 26.75 26.6642 26.75 26.25C26.75 25.8358 26.4142 25.5 26 25.5H24.75V22.75C24.75 22.3358 24.4142 22 24 22Z" fill="#00C2A8"/>
</svg>
