<svg width="48" height="48" viewBox="0 0 48 48" fill="none" xmlns="http://www.w3.org/2000/svg">
<rect opacity="0.1" width="48" height="48" rx="14" fill="#00C2A8"/>
<path fill-rule="evenodd" clip-rule="evenodd" d="M33.9771 17.0698C33.9586 15.4054 32.655 14.0917 30.9907 14.0604C28.7953 14.0192 25.6778 14.6684 22.2302 16.924C21.9224 16.7653 21.5745 16.6713 21.2199 16.6269C20.6324 16.5533 19.9613 16.6062 19.2559 16.7821C17.8523 17.132 16.2429 17.9855 14.7458 19.4602C14.4143 19.7262 14.18 20.1211 14.1147 20.544C14.0422 21.0135 14.1806 21.5594 14.67 21.9217C15.1195 22.2545 15.734 22.3324 16.4165 22.2478L16.4578 22.2425C16.1077 22.7613 15.8647 23.2798 15.859 23.7817C15.8557 24.0621 15.9271 24.3342 16.0858 24.5731C16.2402 24.8054 16.4487 24.9637 16.6559 25.0717C17.0494 25.2768 17.5337 25.3495 17.9737 25.3793C18.5684 25.4195 19.3079 25.3875 19.9929 25.3578C20.31 25.3441 20.6156 25.3308 20.8896 25.3255C21.3545 25.3165 21.748 25.3272 22.0536 25.3735C22.3742 25.4221 22.4702 25.4927 22.476 25.4969C22.4801 25.5025 22.5495 25.5986 22.5957 25.9198C22.6396 26.2257 22.6473 26.6193 22.6347 27.0841C22.6273 27.3581 22.6117 27.6635 22.5955 27.9806C22.5606 28.6653 22.5229 29.4045 22.5586 29.9995C22.585 30.4397 22.6539 30.9246 22.856 31.3196C22.9625 31.5276 23.1191 31.7374 23.3503 31.8935C23.5879 32.0541 23.8594 32.1275 24.1399 32.1265C24.6477 32.1245 25.1744 31.8799 25.702 31.5272C25.6987 31.5501 25.6955 31.5728 25.6926 31.5954C25.6027 32.2772 25.6759 32.8923 26.0053 33.3443C26.3638 33.8365 26.9086 33.9791 27.3786 33.9102C27.8019 33.8481 28.1987 33.6169 28.4672 33.2874C29.9533 31.8017 30.8192 30.199 31.1799 28.7981C31.3612 28.094 31.4193 27.4234 31.3502 26.8353C31.3076 26.4724 31.213 26.1161 31.0502 25.802C33.3279 22.3758 34.0015 19.2671 33.9771 17.0698ZM19.6187 18.2375C19.9835 18.1466 20.3136 18.1029 20.6007 18.0958C19.8591 18.6782 19.1073 19.3372 18.3507 20.0812C17.3909 20.5092 16.7033 20.7008 16.232 20.7592C15.8673 20.8044 15.6838 20.7645 15.6074 20.7369C15.6229 20.6978 15.6527 20.6537 15.6892 20.6265C15.7176 20.6054 15.7445 20.5823 15.7696 20.5574C17.1028 19.2346 18.4915 18.5186 19.6187 18.2375ZM27.1797 31.7913C27.2417 31.3205 27.4385 30.6343 27.874 29.6779C28.6237 28.927 29.2885 28.1803 29.8766 27.4432C29.8672 27.7302 29.821 28.06 29.7273 28.424C29.4376 29.5491 28.7109 30.9323 27.378 32.2553C27.3528 32.2802 27.3295 32.3069 27.3082 32.3351C27.2807 32.3713 27.2364 32.4009 27.1972 32.416C27.1702 32.3394 27.1317 32.1556 27.1797 31.7913ZM27.2673 20.7416C28.0453 21.5256 29.3116 21.5305 30.0957 20.7524C30.8797 19.9744 30.8846 18.7081 30.1065 17.924C29.3285 17.14 28.0622 17.1351 27.2781 17.9132C26.4941 18.6912 26.4892 19.9575 27.2673 20.7416Z" fill="#00C2A8"/>
<path d="M19.7455 25.8526C21.0454 25.8575 22.0951 26.9153 22.0901 28.2152C22.086 29.2765 21.3721 30.2038 20.347 30.4792L19.0546 30.8263C17.8673 31.1452 16.7831 30.0527 17.1111 28.8678L17.4682 27.5782C17.7514 26.5553 18.6842 25.8485 19.7455 25.8526Z" fill="#00C2A8"/>
</svg>
