<svg width="48" height="48" viewBox="0 0 48 48" fill="none" xmlns="http://www.w3.org/2000/svg">
<rect opacity="0.1" width="48" height="48" rx="14" fill="#00C2A8"/>
<path fill-rule="evenodd" clip-rule="evenodd" d="M21.8346 15.9992C23.2953 14.8309 25.3709 14.831 26.8316 15.9992L32.5006 20.5344C33.6321 21.4396 34.1851 22.8863 33.9469 24.3156L32.8902 30.6584C32.5687 32.587 30.9001 34.0001 28.9449 34.0002H19.7213C17.7662 33.9999 16.0974 32.5869 15.776 30.6584L14.7193 24.3156C14.4811 22.8863 15.0342 21.4396 16.1656 20.5344L21.8346 15.9992ZM25.69 22.0002C25.673 22.0131 24.0262 23.2588 25.0064 24.5041C25.6897 25.3387 24.1262 26.8328 23.2916 25.9983C22.7756 25.4822 22.8736 25.3725 22.3512 23.6701C18.8049 26.5912 22.1199 31.1812 25.69 29.7209C28.2861 28.6588 28.1938 25.9647 27.1598 24.5041C25.9002 23.462 25.6905 22.0034 25.69 22.0002Z" fill="#00C2A8"/>
</svg>
