<?xml version="1.0" encoding="UTF-8"?>
<svg id="Layer_1" xmlns="http://www.w3.org/2000/svg" version="1.1" xmlns:xlink="http://www.w3.org/1999/xlink" viewBox="0 0 1080 1080">
  <!-- Generator: Adobe Illustrator 30.1.0, SVG Export Plug-In . SVG Version: 2.1.1 Build 136)  -->
  <defs>
    <style>
      .st0 {
        fill: url(#linear-gradient2);
      }

      .st1 {
        fill: url(#linear-gradient10);
      }

      .st2 {
        fill: url(#linear-gradient1);
      }

      .st3 {
        fill: url(#linear-gradient9);
      }

      .st4 {
        fill: url(#linear-gradient18);
      }

      .st5 {
        fill: url(#linear-gradient8);
      }

      .st6 {
        fill: url(#linear-gradient11);
      }

      .st7 {
        fill: none;
      }

      .st8 {
        fill: url(#linear-gradient16);
      }

      .st9 {
        fill: url(#linear-gradient19);
      }

      .st10 {
        fill: url(#linear-gradient12);
      }

      .st11 {
        fill: url(#linear-gradient7);
      }

      .st12 {
        fill: url(#linear-gradient20);
      }

      .st13 {
        fill: url(#linear-gradient4);
      }

      .st14 {
        fill: url(#linear-gradient14);
      }

      .st15 {
        fill: url(#linear-gradient5);
      }

      .st16 {
        fill: url(#linear-gradient3);
      }

      .st17 {
        fill: url(#linear-gradient15);
      }

      .st18 {
        fill: url(#linear-gradient17);
      }

      .st19 {
        fill: url(#linear-gradient6);
      }

      .st20 {
        fill: url(#linear-gradient13);
      }

      .st21 {
        fill: url(#linear-gradient);
      }
    </style>
    <linearGradient id="linear-gradient" x1="96.04" y1="485.78" x2="400.48" y2="485.78" gradientUnits="userSpaceOnUse">
      <stop offset="0" stop-color="#04383f"/>
      <stop offset=".02" stop-color="#04383f"/>
      <stop offset=".03" stop-color="#043940"/>
      <stop offset=".05" stop-color="#053a41"/>
      <stop offset=".06" stop-color="#053b41"/>
      <stop offset=".08" stop-color="#053c42"/>
      <stop offset=".09" stop-color="#053d43"/>
      <stop offset=".11" stop-color="#063e43"/>
      <stop offset=".12" stop-color="#063f44"/>
      <stop offset=".14" stop-color="#064044"/>
      <stop offset=".16" stop-color="#074145"/>
      <stop offset=".17" stop-color="#074246"/>
      <stop offset=".19" stop-color="#074346"/>
      <stop offset=".2" stop-color="#074447"/>
      <stop offset=".22" stop-color="#084548"/>
      <stop offset=".23" stop-color="#084648"/>
      <stop offset=".25" stop-color="#084749"/>
      <stop offset=".27" stop-color="#08484a"/>
      <stop offset=".28" stop-color="#09494a"/>
      <stop offset=".3" stop-color="#094a4b"/>
      <stop offset=".31" stop-color="#094b4b"/>
      <stop offset=".33" stop-color="#094c4c"/>
      <stop offset=".34" stop-color="#0a4d4d"/>
      <stop offset=".36" stop-color="#0a4e4d"/>
      <stop offset=".38" stop-color="#0a4f4e"/>
      <stop offset=".39" stop-color="#0b504f"/>
      <stop offset=".41" stop-color="#0b514f"/>
      <stop offset=".42" stop-color="#0b5250"/>
      <stop offset=".44" stop-color="#0b5351"/>
      <stop offset=".45" stop-color="#0c5451"/>
      <stop offset=".47" stop-color="#0c5552"/>
      <stop offset=".48" stop-color="#0c5653"/>
      <stop offset=".5" stop-color="#0c5753"/>
      <stop offset=".52" stop-color="#0d5754"/>
      <stop offset=".53" stop-color="#0d5854"/>
      <stop offset=".55" stop-color="#0d5955"/>
      <stop offset=".56" stop-color="#0d5a56"/>
      <stop offset=".58" stop-color="#0e5b56"/>
      <stop offset=".59" stop-color="#0e5c57"/>
      <stop offset=".61" stop-color="#0e5d58"/>
      <stop offset=".62" stop-color="#0e5e58"/>
      <stop offset=".64" stop-color="#0f5f59"/>
      <stop offset=".66" stop-color="#0f605a"/>
      <stop offset=".67" stop-color="#0f615a"/>
      <stop offset=".69" stop-color="#10625b"/>
      <stop offset=".7" stop-color="#10635c"/>
      <stop offset=".72" stop-color="#10645c"/>
      <stop offset=".73" stop-color="#10655d"/>
      <stop offset=".75" stop-color="#11665d"/>
      <stop offset=".77" stop-color="#11675e"/>
      <stop offset=".78" stop-color="#11685f"/>
      <stop offset=".8" stop-color="#11695f"/>
      <stop offset=".81" stop-color="#126a60"/>
      <stop offset=".83" stop-color="#126b61"/>
      <stop offset=".84" stop-color="#126c61"/>
      <stop offset=".86" stop-color="#126d62"/>
      <stop offset=".88" stop-color="#136e63"/>
      <stop offset=".89" stop-color="#136f63"/>
      <stop offset=".91" stop-color="#137064"/>
      <stop offset=".92" stop-color="#147164"/>
      <stop offset=".94" stop-color="#147265"/>
      <stop offset=".95" stop-color="#147366"/>
      <stop offset=".97" stop-color="#147466"/>
      <stop offset=".98" stop-color="#157567"/>
      <stop offset="1" stop-color="#157668"/>
    </linearGradient>
    <linearGradient id="linear-gradient1" y1="594.22" y2="594.22" xlink:href="#linear-gradient"/>
    <linearGradient id="linear-gradient2" x1="327.7" y1="496.6" x2="877.09" y2="502.47" xlink:href="#linear-gradient"/>
    <linearGradient id="linear-gradient3" x1="327.72" y1="494.85" x2="877.11" y2="500.71" xlink:href="#linear-gradient"/>
    <linearGradient id="linear-gradient4" x1="327.74" y1="492.89" x2="877.13" y2="498.76" xlink:href="#linear-gradient"/>
    <linearGradient id="linear-gradient5" x1="390.27" y1="643.03" x2="925.58" y2="646.95" xlink:href="#linear-gradient"/>
    <linearGradient id="linear-gradient6" x1="390.27" y1="642.84" x2="925.58" y2="646.75" xlink:href="#linear-gradient"/>
    <linearGradient id="linear-gradient7" x1="390.28" y1="642.61" x2="925.58" y2="646.53" xlink:href="#linear-gradient"/>
    <linearGradient id="linear-gradient8" x1="390.28" y1="642.43" x2="925.58" y2="646.35" xlink:href="#linear-gradient"/>
    <linearGradient id="linear-gradient9" x1="390.28" y1="642.27" x2="925.58" y2="646.19" xlink:href="#linear-gradient"/>
    <linearGradient id="linear-gradient10" x1="390.28" y1="642.08" x2="925.58" y2="645.99" xlink:href="#linear-gradient"/>
    <linearGradient id="linear-gradient11" x1="390.28" y1="641.89" x2="925.59" y2="645.8" xlink:href="#linear-gradient"/>
    <linearGradient id="linear-gradient12" x1="390.28" y1="641.62" x2="925.59" y2="645.53" xlink:href="#linear-gradient"/>
    <linearGradient id="linear-gradient13" x1="390.28" y1="641.34" x2="925.59" y2="645.25" xlink:href="#linear-gradient"/>
    <linearGradient id="linear-gradient14" x1="390.29" y1="641.12" x2="925.59" y2="645.03" xlink:href="#linear-gradient"/>
    <linearGradient id="linear-gradient15" x1="390.29" y1="640.73" x2="925.59" y2="644.64" xlink:href="#linear-gradient"/>
    <linearGradient id="linear-gradient16" x1="390.29" y1="640.48" x2="925.6" y2="644.39" xlink:href="#linear-gradient"/>
    <linearGradient id="linear-gradient17" x1="390.29" y1="640.31" x2="925.6" y2="644.23" xlink:href="#linear-gradient"/>
    <linearGradient id="linear-gradient18" x1="390.29" y1="640.08" x2="925.6" y2="643.99" xlink:href="#linear-gradient"/>
    <linearGradient id="linear-gradient19" x1="390.3" y1="639.9" x2="925.6" y2="643.81" xlink:href="#linear-gradient"/>
    <linearGradient id="linear-gradient20" x1="390.3" y1="639.63" x2="925.6" y2="643.55" xlink:href="#linear-gradient"/>
  </defs>
  <rect class="st7" x=".12" y=".05" width="1079.76" height="1079.91"/>
  <g>
    <g>
      <path class="st21" d="M220.32,600.86c-13.6,0-24.95-2.41-34.04-7.23-9.1-4.82-15.84-11.39-20.23-19.73-4.37-8.33-6.56-17.76-6.56-28.29,0-3.94.32-8.38.98-13.31.65-4.93,1.09-8.71,1.31-11.35l23.69-150.26h63.12l-24.66,156.51c-.22,1.97-.5,3.9-.83,5.77-.32,1.86-.48,3.45-.48,4.75,0,3.74,1.09,6.7,3.29,8.9,2.19,2.18,5.7,3.27,10.52,3.27h62.14l-7.9,50.98h-70.35Z"/>
      <path class="st2" d="M327.68,479.14c13.6,0,24.95,2.41,34.04,7.23,9.1,4.82,15.84,11.39,20.23,19.73,4.37,8.33,6.56,17.76,6.56,28.29,0,3.94-.32,8.38-.98,13.31-.65,4.93-1.09,8.71-1.31,11.35l-23.69,150.26h-63.12l24.66-156.51c.22-1.97.5-3.9.83-5.77.32-1.86.48-3.45.48-4.75,0-3.74-1.09-6.7-3.29-8.9-2.19-2.18-5.7-3.27-10.52-3.27h-62.14l7.9-50.98h70.35Z"/>
    </g>
    <g>
      <path class="st0" d="M479.32,592.78c-11.16,0-20.47-1.98-27.94-5.94-7.46-3.96-12.99-9.35-16.58-16.19-3.6-6.83-5.4-14.57-5.4-23.21,0-3.23.27-6.87.81-10.92.54-4.05.9-7.17,1.08-9.33l19.42-123.3h51.81l-20.23,128.45c-.18,1.61-.41,3.18-.69,4.71-.27,1.53-.4,2.83-.4,3.92,0,3.06.9,5.49,2.69,7.29,1.8,1.79,4.69,2.69,8.65,2.69h51l-6.48,41.83h-57.75Z"/>
      <path class="st16" d="M555.42,592.78l29.69-188.88h51.81l-11.33,72.31h65.04l11.33-72.31h51.81l-29.69,188.88h-51.81l11.6-74.74h-65.04l-11.6,74.74h-51.81Z"/>
      <path class="st13" d="M754.02,592.78l6.75-41.83h80.14c4.32,0,7.92-.85,10.79-2.56,2.87-1.71,5.07-3.95,6.6-6.73,1.54-2.79,2.31-5.72,2.31-8.79,0-2.87-.59-5.39-1.77-7.54-1.17-2.17-2.93-3.87-5.27-5.12-2.33-1.26-5.3-1.9-8.9-1.9h-23.48c-10.43,0-19.74-2.16-27.94-6.48-8.18-4.32-14.61-10.3-19.29-17.94-4.67-7.65-7-16.69-7-27.12,0-12.59,3.01-23.57,9.04-32.91,6.03-9.36,14.21-16.69,24.54-22,10.34-5.3,22-7.96,34.96-7.96h84.99l-7.02,41.83h-78.24c-3.6,0-6.66.72-9.19,2.17-2.52,1.43-4.45,3.32-5.79,5.67-1.35,2.33-2.02,4.94-2.02,7.81,0,2.52.53,4.85,1.6,7.02,1.08,2.16,2.7,3.81,4.85,4.98,2.17,1.17,4.69,1.75,7.56,1.75h24.83c12.05,0,22.13,2.3,30.23,6.9,8.09,4.58,14.21,10.79,18.35,18.62,4.14,7.82,6.21,16.5,6.21,26.04,0,8.08-1.58,16.04-4.73,23.87-3.16,7.82-7.79,14.93-13.92,21.31-6.11,6.39-13.49,11.47-22.12,15.25-8.62,3.78-18.43,5.67-29.39,5.67h-87.7Z"/>
    </g>
    <g>
      <path class="st15" d="M430.67,627.5h5.88l-5.34,26.69h16.55l-1,4.98h-22.43l6.33-31.66Z"/>
      <path class="st19" d="M457.76,627.5h5.88l-6.33,31.66h-5.88l6.33-31.66Z"/>
      <path class="st11" d="M500.87,627.5l-20.13,31.66h-5.79l-7.46-31.66h6.06l5.65,24.33,15.56-24.33h6.11Z"/>
      <path class="st5" d="M509.1,632.43l-1.63,8.23h15.33l-.95,4.84h-15.38l-1.72,8.73h17.91l-1,4.93h-23.74l6.33-31.66h23.11l-1,4.93h-17.28Z"/>
      <path class="st3" d="M534.56,627.5h5.88l-5.34,26.69h16.55l-1,4.98h-22.43l6.33-31.66Z"/>
      <path class="st1" d="M561.66,627.5h5.88l-6.33,31.66h-5.88l6.33-31.66Z"/>
      <path class="st6" d="M604.17,627.5l-6.33,31.66h-5.83l2.67-13.43h-16.37l-2.67,13.43h-5.88l6.33-31.66h5.88l-2.58,12.98h16.37l2.58-12.98h5.83Z"/>
      <path class="st10" d="M607.07,646.09c0-10.72,7.73-19.04,19.4-19.04,9.54,0,15.15,5.52,15.15,13.52,0,10.72-7.73,19.04-19.4,19.04-9.54,0-15.15-5.52-15.15-13.52ZM635.7,640.93c0-5.2-3.44-8.73-9.77-8.73-7.96,0-12.94,6.2-12.94,13.52,0,5.2,3.39,8.73,9.72,8.73,7.96,0,12.98-6.2,12.98-13.52Z"/>
      <path class="st20" d="M645.15,646.09c0-10.72,7.73-19.04,19.4-19.04,9.54,0,15.15,5.52,15.15,13.52,0,10.72-7.73,19.04-19.4,19.04-9.54,0-15.15-5.52-15.15-13.52ZM673.78,640.93c0-5.2-3.44-8.73-9.77-8.73-7.96,0-12.94,6.2-12.94,13.52,0,5.2,3.39,8.73,9.72,8.73,7.96,0,12.98-6.2,12.98-13.52Z"/>
      <path class="st14" d="M688.89,627.5h12.8c9.63,0,15.38,5.11,15.38,13.07,0,11.22-7.91,18.59-19.72,18.59h-14.79l6.33-31.66ZM697.53,654.18c8.5,0,13.61-5.65,13.61-13.25,0-5.2-3.39-8.46-10.09-8.46h-7.28l-4.34,21.71h8.1Z"/>
      <path class="st17" d="M730.51,655.9l2.49-4.61c2.62,2.13,6.47,3.44,10.31,3.44,4.61,0,7.6-1.67,7.6-4.48,0-5.88-15.97-2.8-15.97-12.98,0-6.24,5.61-10.22,13.79-10.22,4.07,0,7.91.95,10.58,2.67l-2.31,4.66c-2.35-1.58-5.43-2.44-8.59-2.44-4.79,0-7.64,1.95-7.64,4.7,0,5.93,15.97,3.03,15.97,12.71,0,6.29-5.65,10.27-13.98,10.27-4.97,0-9.77-1.58-12.26-3.71Z"/>
      <path class="st8" d="M775.92,648.35l-2.17,10.81h-5.84l2.22-11.22-8.28-20.44h5.84l6.24,15.47,12.48-15.47h6.15l-16.64,20.85Z"/>
      <path class="st18" d="M787.5,655.9l2.49-4.61c2.62,2.13,6.47,3.44,10.31,3.44,4.61,0,7.6-1.67,7.6-4.48,0-5.88-15.97-2.8-15.97-12.98,0-6.24,5.61-10.22,13.79-10.22,4.07,0,7.91.95,10.58,2.67l-2.31,4.66c-2.35-1.58-5.43-2.44-8.59-2.44-4.79,0-7.64,1.95-7.64,4.7,0,5.93,15.97,3.03,15.97,12.71,0,6.29-5.65,10.27-13.98,10.27-4.97,0-9.77-1.58-12.26-3.71Z"/>
      <path class="st4" d="M829.15,632.47h-10.49l1-4.98h26.87l-1.04,4.98h-10.49l-5.29,26.69h-5.88l5.34-26.69Z"/>
      <path class="st9" d="M855.8,632.43l-1.63,8.23h15.33l-.95,4.84h-15.38l-1.72,8.73h17.91l-1,4.93h-23.74l6.33-31.66h23.11l-1,4.93h-17.28Z"/>
      <path class="st12" d="M915.91,627.5l-6.33,31.66h-5.56l4.12-20.76-13.52,17.14h-2.62l-7.24-17.55-4.21,21.17h-5.61l6.33-31.66h4.79l8.37,21.08,16.42-21.08h5.07Z"/>
    </g>
  </g>
</svg>