<svg width="105" height="104" viewBox="0 0 105 104" fill="none" xmlns="http://www.w3.org/2000/svg">
<g filter="url(#filter0_d_3750_9502)">
<path d="M52.0586 24.5293L52.8935 26.0886C53.0812 26.3764 53.2845 26.6311 53.524 26.8683C54.2262 27.5579 54.8807 28.2938 55.4831 29.0712C56.8977 30.9183 57.8518 32.9695 58.5332 35.1879C58.9418 36.5431 59.1637 37.9333 59.1803 39.339C59.2488 43.5416 57.8 47.1502 54.8789 50.1493C54.4038 50.6249 53.8905 51.0612 53.3441 51.454C53.0548 51.454 52.9179 51.2333 52.7986 51.0301C52.5815 50.6533 52.4369 50.2396 52.3724 49.81C52.2698 49.3016 52.2023 48.7932 52.2356 48.2682V48.031C52.2121 47.9805 51.9569 24.6489 52.0586 24.5293Z" fill="#599636"/>
<path d="M52.0586 24.4778C52.0244 24.4097 51.9901 24.4613 51.9559 24.4943C51.9725 24.8346 51.8533 25.1379 51.6666 25.4276C51.4613 25.7153 51.1895 25.936 50.9168 26.1732C49.4015 27.4778 48.2089 29.0537 47.2538 30.8162C45.9829 33.1882 45.3279 35.7304 45.1422 38.4068C45.0571 39.3721 45.4491 42.7785 45.7551 43.7614C46.59 46.3706 48.0896 48.557 50.032 50.4546C50.5091 50.9115 51.0194 51.3354 51.5473 51.7427C51.7008 51.7427 51.7174 51.6066 51.7526 51.5055C51.8199 51.2892 51.8712 51.0682 51.9061 50.8444L52.2482 48.3032L52.0586 24.4778Z" fill="#6CAC48"/>
<path d="M52.8934 52.4866C52.9276 52.0978 53.1153 51.775 53.3196 51.4533C53.1143 51.3687 52.9618 51.2005 52.8425 51.0129C52.7397 50.8352 52.6546 50.648 52.5884 50.4539C52.3498 49.7423 52.299 48.9957 52.2306 48.2685V47.8281C52.1455 47.8962 52.1279 48.4717 52.1279 48.5572C52.0782 49.3258 51.9756 50.0901 51.821 50.8447C51.7701 51.1499 51.7359 51.4542 51.5472 51.7255C51.5472 51.7595 51.5472 51.7935 51.5639 51.8441C51.8708 52.7423 51.9549 53.6571 52.0067 54.5894V54.9296C52.0067 55.336 51.9901 55.2505 52.3293 55.3866C52.4662 55.4371 52.6187 55.4546 52.7555 55.5557C52.8582 55.5557 52.8748 55.4711 52.8748 55.4031L52.824 54.8441V53.2848C52.8073 53.0126 52.8582 52.7423 52.8924 52.4876L52.8934 52.4866Z" fill="#C2BFBF"/>
</g>
<defs>
<filter id="filter0_d_3750_9502" x="0" y="0" width="104.313" height="104" filterUnits="userSpaceOnUse" color-interpolation-filters="sRGB">
<feFlood flood-opacity="0" result="BackgroundImageFix"/>
<feColorMatrix in="SourceAlpha" type="matrix" values="0 0 0 0 0 0 0 0 0 0 0 0 0 0 0 0 0 0 127 0" result="hardAlpha"/>
<feOffset dy="12"/>
<feGaussianBlur stdDeviation="12"/>
<feColorMatrix type="matrix" values="0 0 0 0 0.290196 0 0 0 0 0.227451 0 0 0 0 1 0 0 0 0.23 0"/>
<feBlend mode="normal" in2="BackgroundImageFix" result="effect1_dropShadow_3750_9502"/>
<feBlend mode="normal" in="SourceGraphic" in2="effect1_dropShadow_3750_9502" result="shape"/>
</filter>
</defs>
</svg>
