<svg width="104" height="104" viewBox="0 0 104 104" fill="none" xmlns="http://www.w3.org/2000/svg">
<g filter="url(#filter0_d_3750_9452)">
<path d="M43.7854 35.5319H49.6532V35.996H44.3233V39.4893H49.3354V39.9534H44.3233V43.7887H49.7144V44.2529H43.7854V35.5319ZM50.1789 35.5319H50.8024L53.5651 39.3672L56.389 35.5319L60.23 30.6602L53.9196 39.7702L57.1714 44.2529H56.5235L53.5651 40.1733L50.5945 44.2529H49.9589L53.2351 39.7702L50.1789 35.5319ZM57.4037 35.996V35.5319H64.0906V35.996H61.01V44.2529H60.4721V35.996H57.4037Z" fill="black"/>
<path d="M36.4445 35.5322H37.1168L46.3882 49.3394L42.5568 44.2532L37.0068 36.1918L36.9823 44.2532H36.4445V35.5322Z" fill="black"/>
<path d="M64.0363 43.6482C64.1475 43.6482 64.2286 43.5635 64.2286 43.454C64.2286 43.3445 64.1475 43.2597 64.0363 43.2597C63.9264 43.2597 63.844 43.3445 63.844 43.454C63.844 43.5635 63.9264 43.6482 64.0363 43.6482ZM64.5648 43.1372C64.5648 43.4605 64.799 43.6717 65.1405 43.6717C65.5042 43.6717 65.724 43.454 65.724 43.0759V41.7448H65.4309V43.0746C65.4309 43.2845 65.3249 43.3966 65.1379 43.3966C64.9704 43.3966 64.8566 43.2923 64.8527 43.1372H64.5648ZM66.1073 43.1202C66.1282 43.4566 66.4095 43.6717 66.8281 43.6717C67.2756 43.6717 67.5555 43.4461 67.5555 43.0863C67.5555 42.8034 67.3959 42.647 67.0087 42.557L66.8007 42.5062C66.5547 42.4488 66.4553 42.3719 66.4553 42.2376C66.4553 42.0682 66.6097 41.9573 66.8412 41.9573C67.061 41.9573 67.2128 42.0656 67.2402 42.2389H67.5254C67.5084 41.9221 67.2285 41.6992 66.8451 41.6992C66.433 41.6992 66.1583 41.9221 66.1583 42.2572C66.1583 42.5336 66.314 42.6978 66.6554 42.7774L66.8988 42.836C67.1487 42.8947 67.2586 42.9807 67.2586 43.1241C67.2586 43.291 67.0859 43.4122 66.8504 43.4122C66.5979 43.4122 66.4226 43.2988 66.3977 43.1202H66.1073Z" fill="black"/>
</g>
<defs>
<filter id="filter0_d_3750_9452" x="0" y="0" width="104" height="104" filterUnits="userSpaceOnUse" color-interpolation-filters="sRGB">
<feFlood flood-opacity="0" result="BackgroundImageFix"/>
<feColorMatrix in="SourceAlpha" type="matrix" values="0 0 0 0 0 0 0 0 0 0 0 0 0 0 0 0 0 0 127 0" result="hardAlpha"/>
<feOffset dy="12"/>
<feGaussianBlur stdDeviation="12"/>
<feColorMatrix type="matrix" values="0 0 0 0 0.290196 0 0 0 0 0.227451 0 0 0 0 1 0 0 0 0.23 0"/>
<feBlend mode="normal" in2="BackgroundImageFix" result="effect1_dropShadow_3750_9452"/>
<feBlend mode="normal" in="SourceGraphic" in2="effect1_dropShadow_3750_9452" result="shape"/>
</filter>
</defs>
</svg>
