<svg width="104" height="104" viewBox="0 0 104 104" fill="none" xmlns="http://www.w3.org/2000/svg">
<g filter="url(#filter0_d_3750_9459)">
<path d="M52 42.7435C53.5149 42.7435 54.7429 41.5155 54.7429 40.0006C54.7429 38.4858 53.5149 37.2578 52 37.2578C50.4852 37.2578 49.2572 38.4858 49.2572 40.0006C49.2572 41.5155 50.4852 42.7435 52 42.7435Z" fill="#61DAFB"/>
<path fill-rule="evenodd" clip-rule="evenodd" d="M39.1033 38.5571C38.4813 39.1186 38.2769 39.6082 38.2769 40.0003C38.2769 40.3925 38.4813 40.882 39.1033 41.4435C39.7249 42.0046 40.6804 42.5557 41.9461 43.039C44.4704 44.0028 48.0247 44.6198 52 44.6198C55.9753 44.6198 59.5296 44.0028 62.054 43.039C63.3196 42.5557 64.2752 42.0046 64.8967 41.4435C65.5187 40.882 65.7232 40.3925 65.7232 40.0003C65.7232 39.6082 65.5187 39.1186 64.8967 38.5571C64.2752 37.996 63.3196 37.4449 62.054 36.9616C59.5296 35.9978 55.9753 35.3809 52 35.3809C48.0247 35.3809 44.4704 35.9978 41.9461 36.9616C40.6804 37.4449 39.7249 37.996 39.1033 38.5571ZM41.2401 35.0919C44.0425 34.0219 47.847 33.3809 52 33.3809C56.1531 33.3809 59.9575 34.0219 62.7599 35.0919C64.1577 35.6256 65.3574 36.2853 66.2254 37.0688C67.0929 37.8519 67.7121 38.8407 67.7121 40.0003C67.7121 41.1599 67.0929 42.1487 66.2254 42.9318C65.3574 43.7153 64.1577 44.3751 62.7599 44.9087C59.9575 45.9788 56.1531 46.6198 52 46.6198C47.847 46.6198 44.0425 45.9788 41.2401 44.9087C39.8424 44.3751 38.6426 43.7153 37.7747 42.9318C36.9072 42.1487 36.288 41.1599 36.288 40.0003C36.288 38.8407 36.9072 37.8519 37.7747 37.0688C38.6426 36.2853 39.8424 35.6256 41.2401 35.0919Z" fill="#61DAFB"/>
<path fill-rule="evenodd" clip-rule="evenodd" d="M46.8095 28.112C46.0132 27.8544 45.4843 27.9208 45.1405 28.1193C44.7966 28.3178 44.4746 28.7427 44.2996 29.561C44.1245 30.3795 44.125 31.4818 44.3392 32.8187C44.7664 35.4852 46.0087 38.8705 47.9958 42.3121C49.9828 45.7538 52.2934 48.5223 54.3891 50.2255C55.4397 51.0794 56.3941 51.6311 57.1905 51.8887C57.9867 52.1463 58.5156 52.0798 58.8595 51.8813C59.2033 51.6828 59.5253 51.258 59.7003 50.4396C59.8754 49.6212 59.8749 48.5188 59.6607 47.182C59.2335 44.5154 57.9912 41.1302 56.0041 37.6885C54.0171 34.2468 51.7065 31.4784 49.6108 29.7751C48.5602 28.9212 47.6058 28.3696 46.8095 28.112ZM50.8646 28.2266C53.1936 30.1196 55.6518 33.095 57.729 36.6927C59.8061 40.2903 61.1538 43.907 61.6285 46.8704C61.8654 48.3486 61.8939 49.7183 61.6492 50.8621C61.4045 52.006 60.8581 53.0336 59.8581 53.611C58.858 54.1883 57.6949 54.1477 56.5819 53.7877C55.469 53.4277 54.2971 52.7181 53.1354 51.774C50.8063 49.8811 48.3481 46.9056 46.271 43.308C44.1938 39.7103 42.8462 36.0936 42.3714 33.1302C42.1346 31.652 42.1061 30.2824 42.3507 29.1385C42.5954 27.9947 43.1418 26.967 44.1419 26.3897C45.1419 25.8123 46.3051 25.8529 47.418 26.2129C48.5309 26.573 49.7029 27.2825 50.8646 28.2266Z" fill="#61DAFB"/>
<path fill-rule="evenodd" clip-rule="evenodd" d="M59.7004 29.561C59.5254 28.7426 59.2034 28.3178 58.8596 28.1193C58.5157 27.9207 57.9868 27.8543 57.1905 28.1119C56.3942 28.3695 55.4398 28.9211 54.3892 29.7751C52.2935 31.4783 49.9829 34.2468 47.9959 37.6885C46.0088 41.1301 44.7665 44.5154 44.3393 47.1819C44.1251 48.5188 44.1246 49.6211 44.2997 50.4395C44.4747 51.2579 44.7967 51.6828 45.1405 51.8813C45.4844 52.0798 46.0133 52.1462 46.8096 51.8886C47.6059 51.631 48.5603 51.0794 49.6109 50.2255C51.7066 48.5222 54.0172 45.7537 56.0042 42.3121C57.9913 38.8704 59.2336 35.4852 59.6608 32.8186C59.875 31.4818 59.8755 30.3794 59.7004 29.561ZM61.6286 33.1301C61.1539 36.0936 59.8062 39.7102 57.7291 43.3079C55.6519 46.9056 53.1937 49.881 50.8646 51.7739C49.7029 52.7181 48.531 53.4276 47.4181 53.7877C46.3051 54.1477 45.142 54.1883 44.1419 53.6109C43.1419 53.0335 42.5955 52.0059 42.3508 50.862C42.1061 49.7182 42.1346 48.3485 42.3715 46.8704C42.8463 43.9069 44.1939 40.2903 46.2711 36.6926C48.3482 33.095 50.8064 30.1195 53.1355 28.2266C54.2972 27.2824 55.4691 26.5729 56.582 26.2129C57.695 25.8528 58.8581 25.8123 59.8582 26.3896C60.8582 26.967 61.4046 27.9946 61.6493 29.1385C61.894 30.2823 61.8655 31.652 61.6286 33.1301Z" fill="#61DAFB"/>
</g>
<defs>
<filter id="filter0_d_3750_9459" x="0" y="0" width="104" height="104" filterUnits="userSpaceOnUse" color-interpolation-filters="sRGB">
<feFlood flood-opacity="0" result="BackgroundImageFix"/>
<feColorMatrix in="SourceAlpha" type="matrix" values="0 0 0 0 0 0 0 0 0 0 0 0 0 0 0 0 0 0 127 0" result="hardAlpha"/>
<feOffset dy="12"/>
<feGaussianBlur stdDeviation="12"/>
<feColorMatrix type="matrix" values="0 0 0 0 0.290196 0 0 0 0 0.227451 0 0 0 0 1 0 0 0 0.23 0"/>
<feBlend mode="normal" in2="BackgroundImageFix" result="effect1_dropShadow_3750_9459"/>
<feBlend mode="normal" in="SourceGraphic" in2="effect1_dropShadow_3750_9459" result="shape"/>
</filter>
</defs>
</svg>
