<svg width="105" height="104" viewBox="0 0 105 104" fill="none" xmlns="http://www.w3.org/2000/svg">
<g filter="url(#filter0_d_3750_9477)">
<path d="M65.3306 48.4762C63.6284 48.4333 62.3092 48.6052 61.2027 49.0776C60.8835 49.2064 60.3728 49.2065 60.3302 49.6147C60.5005 49.7865 60.5218 50.0658 60.6707 50.3019C60.9263 50.7314 61.3728 51.3114 61.7772 51.6123C62.2239 51.9558 62.6709 52.2994 63.1389 52.6002C63.9688 53.1157 64.9051 53.4163 65.7136 53.9318C66.1819 54.2323 66.6497 54.6192 67.1179 54.9413C67.3519 55.1129 67.5008 55.3924 67.7988 55.4997V55.4354C67.6497 55.2419 67.6072 54.9628 67.4584 54.748C67.2458 54.5332 67.0327 54.3399 66.8199 54.1251C66.2029 53.2875 65.437 52.5572 64.6072 51.9558C63.9263 51.4833 62.4367 50.839 62.1602 50.0442C62.1602 50.0442 62.1388 50.0228 62.1177 50.0013C62.5857 49.9584 63.1389 49.7865 63.5859 49.6576C64.3093 49.4642 64.9688 49.5073 65.7136 49.3139C66.054 49.228 66.3945 49.1206 66.7348 49.0132V48.82C66.352 48.4333 66.0754 47.9179 65.6711 47.5527C64.5859 46.6075 63.3942 45.684 62.1602 44.9108C61.5005 44.4812 60.6493 44.202 59.9472 43.8369C59.6921 43.7079 59.2664 43.6436 59.1175 43.4288C58.7344 42.9563 58.5216 42.3335 58.245 41.775C57.6282 40.5935 57.0322 39.2834 56.5002 38.0378C56.1174 37.2 55.8833 36.3623 55.4151 35.5892C53.2235 31.9378 50.8404 29.7255 47.1807 27.5561C46.3934 27.1051 45.4571 26.9118 44.4571 26.6756C43.9253 26.654 43.3932 26.6112 42.8613 26.5896C42.5209 26.4392 42.1804 26.0312 41.8825 25.8379C40.6699 25.0645 37.5418 23.3894 36.6482 25.6017C36.0736 26.9977 37.4994 28.3722 37.9886 29.0812C38.3506 29.5752 38.8185 30.1336 39.0738 30.6921C39.2228 31.057 39.2652 31.4439 39.4142 31.8304C39.7548 32.7752 40.0738 33.8279 40.5208 34.7086C40.7549 35.1596 41.0101 35.6321 41.308 36.0402C41.4783 36.2764 41.7761 36.3839 41.84 36.7704C41.5422 37.2 41.5208 37.8445 41.3505 38.3814C40.5845 40.8085 40.8825 43.8154 41.9676 45.5981C42.3079 46.1349 43.1166 47.3166 44.2017 46.8654C45.1593 46.4788 44.9465 45.2545 45.2229 44.1806C45.287 43.9226 45.2445 43.751 45.372 43.5791V43.6222C45.67 44.2234 45.9677 44.8036 46.2444 45.4049C46.9041 46.4572 48.053 47.5527 49.0104 48.2831C49.5213 48.6695 49.9255 49.3354 50.5639 49.5717V49.5071H50.5212C50.3935 49.3138 50.202 49.228 50.0319 49.0775C49.649 48.6911 49.2232 48.2185 48.9254 47.7889C48.0319 46.586 47.2444 45.2544 46.5423 43.8798C46.202 43.2141 45.9039 42.4837 45.6274 41.818C45.4996 41.5599 45.4996 41.1735 45.2869 41.0448C44.9677 41.5172 44.4997 41.9254 44.2656 42.5052C43.8615 43.4288 43.8188 44.5671 43.6699 45.7483C43.5847 45.7701 43.6272 45.7483 43.5846 45.7916C42.9039 45.6195 42.6698 44.9108 42.4143 44.3094C41.7759 42.7845 41.6695 40.3359 42.2229 38.5747C42.3719 38.1236 43.0103 36.7061 42.7549 36.2765C42.6273 35.8683 42.2015 35.6321 41.9676 35.31C41.6911 34.9018 41.393 34.3865 41.2016 33.9353C40.6909 32.7325 40.4355 31.4008 39.8824 30.198C39.627 29.6395 39.1804 29.0598 38.8185 28.5442C38.4143 27.9643 37.9674 27.5561 37.6482 26.8688C37.5419 26.6327 37.3928 26.246 37.5631 25.9882C37.6056 25.8164 37.6906 25.7521 37.861 25.7091C38.1376 25.4727 38.925 25.7734 39.2014 25.9023C39.9888 26.2243 40.6483 26.5252 41.308 26.9762C41.6058 27.191 41.925 27.5992 42.3079 27.7066H42.7548C43.4358 27.8568 44.2016 27.7495 44.84 27.9427C45.9679 28.3078 46.9891 28.8448 47.9041 29.4248C50.6916 31.2075 52.9893 33.742 54.5428 36.7704C54.7981 37.2642 54.9044 37.7156 55.1385 38.2309C55.5855 39.2834 56.1387 40.3574 56.5853 41.3883C57.0322 42.3977 57.4577 43.4288 58.0961 44.2665C58.4153 44.7174 59.6918 44.9538 60.2664 45.1901C60.692 45.3833 61.3517 45.5553 61.7346 45.7914C62.458 46.2423 63.1814 46.7581 63.8624 47.2519C64.2029 47.5097 65.2666 48.0467 65.3306 48.4762Z" fill="#00546B"/>
<path d="M43.6271 29.8115C43.2655 29.8115 43.0102 29.8547 42.7549 29.9191V29.962H42.7974C42.9678 30.3057 43.2655 30.542 43.4782 30.8426C43.6485 31.1862 43.7974 31.53 43.9677 31.8737C43.9889 31.8521 44.0102 31.8307 44.0102 31.8307C44.3082 31.6158 44.457 31.2722 44.457 30.7567C44.3294 30.6064 44.3081 30.4561 44.2017 30.3057C44.0741 30.0908 43.7974 29.9835 43.6271 29.8115Z" fill="#00546B"/>
</g>
<defs>
<filter id="filter0_d_3750_9477" x="0" y="0" width="104.313" height="104" filterUnits="userSpaceOnUse" color-interpolation-filters="sRGB">
<feFlood flood-opacity="0" result="BackgroundImageFix"/>
<feColorMatrix in="SourceAlpha" type="matrix" values="0 0 0 0 0 0 0 0 0 0 0 0 0 0 0 0 0 0 127 0" result="hardAlpha"/>
<feOffset dy="12"/>
<feGaussianBlur stdDeviation="12"/>
<feColorMatrix type="matrix" values="0 0 0 0 0.290196 0 0 0 0 0.227451 0 0 0 0 1 0 0 0 0.23 0"/>
<feBlend mode="normal" in2="BackgroundImageFix" result="effect1_dropShadow_3750_9477"/>
<feBlend mode="normal" in="SourceGraphic" in2="effect1_dropShadow_3750_9477" result="shape"/>
</filter>
</defs>
</svg>
