<svg width="128" height="115" viewBox="0 0 128 115" fill="none" xmlns="http://www.w3.org/2000/svg">
<path d="M25.1649 94.4185C24.0905 94.4185 23.2159 93.5547 23.2105 92.4803L22.8757 22.3034V22.2926C22.8757 21.5529 23.4588 20.9428 24.1985 20.9212H24.3281L64.0057 20.7431L102.954 20.5757C103.548 20.5757 104.493 20.8618 104.65 21.2722C104.779 21.6177 104.769 22.4762 104.769 23.0161L104.909 58.9036L105.087 92.6584C105.087 93.1065 105.125 93.992 103.883 94.0676L25.1703 94.4185H25.1649ZM27.6593 91.7028L102.587 91.5948L102.56 23.3454H25.6886L25.8668 64.4376L25.9316 90.2775C26.0072 91.1791 26.3797 91.665 27.6593 91.7028Z" fill="#A0A3BD"/>
<path d="M94.7912 68.2925C88.4041 72.995 76.6396 74.6957 68.6598 75.0197C67.445 75.0683 66.9483 75.9375 67.0077 77.0767C67.1211 79.4199 67.1319 81.6443 67.0239 83.9659C66.9537 85.4182 67.8229 86.7626 69.1997 87.2269C73.438 88.6469 75.2358 87.702 75.306 89.095C75.333 89.6781 74.5772 89.8617 73.8375 89.8617L54.1903 89.8293C53.8502 89.8293 53.2185 89.5323 53.0187 89.3596C50.9239 87.5185 61.0201 89.311 61.2037 84.1171C61.3063 81.1746 61.2955 78.3509 61.1335 75.295C52.5274 74.3988 44.2183 72.8978 37.5073 67.4232C34.2624 64.7777 32.1244 60.9227 32.3674 56.7547C33.1124 44.0669 50.4866 40.3524 60.4424 38.9432C61.6248 37.8094 61.4899 35.0127 60.2319 33.9977C57.4244 31.7301 54.4063 31.9784 50.9023 32.3564C43.6838 33.1392 35.8498 34.7859 29.4789 38.101C29.2197 38.2359 28.534 38.0038 28.4045 37.8256C28.2749 37.6474 28.3343 37.0103 28.5664 36.8484C32.9289 33.8195 37.95 30.4451 43.0575 28.6148C43.0683 29.2951 43.1223 30.8932 43.6514 30.7798C57.3704 27.7834 70.9598 27.7726 84.641 30.8338L85.2187 28.6958C89.3976 29.862 95.6874 34.192 99.5262 36.681C99.8069 36.8646 99.9257 37.7446 99.7529 37.939C99.5802 38.1333 99.0457 38.1711 98.7595 38.0362C90.9363 34.3864 84.3548 33.1662 75.8243 32.1566C72.9898 31.8219 69.9718 32.2808 67.634 34.1057C66.6136 34.9047 66.7107 37.1237 67.3748 38.2629L81.4663 39.5479L82.3626 37.9066C84.398 38.5599 95.6173 41.8911 95.7144 43.6512C95.7306 43.9211 94.9046 44.2451 94.4943 44.1587C87.1677 42.5984 78.9558 41.6589 71.2999 41.5887C69.772 41.5725 68.5842 41.3782 67.0185 41.9127L67.0455 71.1702C67.0455 71.6075 67.0023 72.3093 67.4342 72.2824C76.9905 71.5859 85.1107 70.641 93.7276 66.8617C94.0893 66.6997 94.721 66.7861 94.9856 66.9157C95.2501 67.0453 95.072 68.1089 94.8128 68.2979L94.7912 68.2925ZM61.1497 71.9206L61.1227 56.9059L60.9823 41.9721C53.5209 42.6254 44.8824 44.6554 39.9638 50.4162C36.6434 54.3089 36.4005 59.5028 39.6399 63.4927C44.0833 68.9673 53.8448 71.6561 61.1497 71.9206Z" fill="#A0A3BD"/>
<path d="M94.4617 58.1585L93.2038 60.3343C91.5247 63.2444 88.8845 65.2096 85.251 64.9397C80.705 64.6049 75.6299 64.6373 71.208 64.7453C70.8625 64.7561 70.0472 64.335 70.1552 64.119C70.8031 62.807 72.4714 63.4063 72.4822 61.9054L72.5416 51.766C72.5524 49.628 71.8073 48.5751 70.0256 46.6477C71.7317 46.3723 78.5129 46.2104 78.9881 46.8312C79.7763 47.8625 77.3198 47.7977 77.3252 49.0719L77.3737 61.7704C80.6186 62.6289 83.6852 62.6613 86.8491 61.954C92.0376 60.7986 92.4047 56.9653 94.4617 58.1477V58.1585Z" fill="#A0A3BD"/>
<path d="M56.7602 64.508L49.4823 64.5728C50.3786 63.6117 51.3774 62.7479 51.3342 61.5439L51.075 54.5035L50.9401 48.1165L49.2664 46.6209C52.0253 46.3888 53.7746 46.405 56.7386 46.5129L55.5131 48.381L55.5239 62.4779C55.5239 62.9963 56.2527 63.8277 56.7494 64.5026L56.7602 64.508Z" fill="#A0A3BD"/>
</svg>
