<svg width="48" height="48" viewBox="0 0 48 48" fill="none" xmlns="http://www.w3.org/2000/svg">
<rect opacity="0.1" width="47.4228" height="48" rx="14" fill="#00C2A8"/>
<path d="M22.3752 20.8161C21.746 20.8639 21.2502 21.3897 21.2502 22.0312C21.2502 22.6728 21.746 23.1986 22.3752 23.2464V20.8161Z" fill="#00C2A8"/>
<path d="M23.8752 24.7536V27.1839C24.5045 27.1361 25.0002 26.6103 25.0002 25.9688C25.0002 25.3272 24.5045 24.8014 23.8752 24.7536Z" fill="#00C2A8"/>
<path fill-rule="evenodd" clip-rule="evenodd" d="M32.5002 24C32.5002 28.9706 28.4708 33 23.5002 33C18.5297 33 14.5002 28.9706 14.5002 24C14.5002 19.0294 18.5297 15 23.5002 15C28.4708 15 32.5002 19.0294 32.5002 24ZM23.8752 19.3357V18.75C23.8752 18.3358 23.5395 18 23.1252 18C22.711 18 22.3752 18.3358 22.3752 18.75V19.3141C20.9171 19.3635 19.7502 20.5611 19.7502 22.0312C19.7502 23.5014 20.9171 24.699 22.3752 24.7484V27.1402C21.7283 26.9737 21.2502 26.3864 21.2502 25.6875C21.2502 25.2733 20.9145 24.9375 20.5002 24.9375C20.086 24.9375 19.7502 25.2733 19.7502 25.6875C19.7502 27.2174 20.8954 28.4798 22.3752 28.6643V29.25C22.3752 29.6642 22.711 30 23.1252 30C23.5395 30 23.8752 29.6642 23.8752 29.25V28.6859C25.3334 28.6365 26.5002 27.4389 26.5002 25.9688C26.5002 24.4986 25.3334 23.301 23.8752 23.2516V20.8598C24.5222 21.0263 25.0002 21.6136 25.0002 22.3125C25.0002 22.7267 25.336 23.0625 25.7502 23.0625C26.1645 23.0625 26.5002 22.7267 26.5002 22.3125C26.5002 20.7826 25.3551 19.5202 23.8752 19.3357Z" fill="#00C2A8"/>
</svg>
