<svg width="48" height="48" viewBox="0 0 48 48" fill="none" xmlns="http://www.w3.org/2000/svg">
<rect opacity="0.1" x="6.10352e-05" width="47.4228" height="48" rx="14" fill="#00C2A8"/>
<path fill-rule="evenodd" clip-rule="evenodd" d="M24.0002 34C29.5231 34 34.0002 29.5228 34.0002 24C34.0002 18.4772 29.5231 14 24.0002 14C18.4774 14 14.0002 18.4772 14.0002 24C14.0002 29.5228 18.4774 34 24.0002 34ZM24.7502 19C24.7502 18.5858 24.4145 18.25 24.0002 18.25C23.586 18.25 23.2502 18.5858 23.2502 19V25C23.2502 25.4142 23.586 25.75 24.0002 25.75H28.0002C28.4145 25.75 28.7502 25.4142 28.7502 25C28.7502 24.5858 28.4145 24.25 28.0002 24.25H24.7502V19Z" fill="#00C2A8"/>
</svg>
