<svg width="48" height="48" viewBox="0 0 48 48" fill="none" xmlns="http://www.w3.org/2000/svg">
<rect opacity="0.1" x="6.10352e-05" width="47.4228" height="48" rx="14" fill="#00C2A8"/>
<path fill-rule="evenodd" clip-rule="evenodd" d="M33.6438 16.7817C33.6254 15.1173 32.3217 13.8036 30.6575 13.7723C28.462 13.7311 25.3446 14.3804 21.8969 16.6359C21.5891 16.4773 21.2412 16.3832 20.8867 16.3388C20.2991 16.2652 19.628 16.3181 18.9226 16.494C17.519 16.844 15.9096 17.6975 14.4126 19.1721C14.081 19.4381 13.8468 19.8331 13.7815 20.2559C13.709 20.7254 13.8474 21.2713 14.3367 21.6336C14.7862 21.9664 15.4007 22.0443 16.0833 21.9597L16.1245 21.9544C15.7745 22.4732 15.5315 22.9917 15.5257 23.4936C15.5225 23.7741 15.5938 24.0461 15.7526 24.285C15.9069 24.5173 16.1155 24.6756 16.3227 24.7836C16.7162 24.9888 17.2005 25.0614 17.6404 25.0912C18.2352 25.1315 18.9746 25.0994 19.6596 25.0697C19.9768 25.056 20.2823 25.0427 20.5564 25.0374C21.0212 25.0284 21.4148 25.0392 21.7203 25.0854C22.0409 25.134 22.137 25.2046 22.1427 25.2088C22.1468 25.2144 22.2163 25.3105 22.2624 25.6317C22.3063 25.9376 22.3141 26.3312 22.3015 26.796C22.2941 27.07 22.2785 27.3754 22.2623 27.6925C22.2273 28.3772 22.1896 29.1164 22.2253 29.7114C22.2517 30.1516 22.3206 30.6365 22.5228 31.0315C22.6292 31.2395 22.7859 31.4493 23.017 31.6054C23.2546 31.766 23.5261 31.8394 23.8066 31.8384C24.3144 31.8364 24.8411 31.5918 25.3688 31.2391C25.3654 31.262 25.3623 31.2847 25.3593 31.3073C25.2695 31.9892 25.3427 32.6042 25.672 33.0563C26.0305 33.5484 26.5753 33.691 27.0454 33.6221C27.4687 33.56 27.8654 33.3288 28.134 32.9994C29.6201 31.5136 30.4859 29.9109 30.8467 28.51C31.028 27.806 31.086 27.1353 31.0169 26.5472C30.9743 26.1844 30.8798 25.8281 30.7169 25.514C32.9947 22.0877 33.6682 18.979 33.6438 16.7817ZM19.2855 17.9494C19.6503 17.8585 19.9803 17.8148 20.2674 17.8077C19.5258 18.3901 18.7741 19.0491 18.0174 19.7931C17.0577 20.2211 16.3701 20.4127 15.8988 20.4711C15.5341 20.5163 15.3505 20.4764 15.2742 20.4488C15.2896 20.4097 15.3195 20.3656 15.356 20.3384C15.3844 20.3173 15.4112 20.2942 15.4363 20.2693C16.7695 18.9465 18.1582 18.2305 19.2855 17.9494ZM26.8464 31.5032C26.9085 31.0324 27.1053 30.3462 27.5407 29.3898C28.2905 28.6389 28.9553 27.8922 29.5433 27.1551C29.534 27.4422 29.4878 27.7719 29.394 28.1359C29.1043 29.261 28.3777 30.6442 27.0447 31.9672C27.0196 31.9921 26.9963 32.0188 26.9749 32.047C26.9475 32.0833 26.9031 32.1128 26.8639 32.128C26.837 32.0514 26.7984 31.8675 26.8464 31.5032ZM26.934 20.4535C27.712 21.2375 28.9784 21.2424 29.7624 20.4644C30.5465 19.6863 30.5513 18.42 29.7733 17.6359C28.9952 16.8519 27.7289 16.847 26.9449 17.6251C26.1608 18.4031 26.156 19.6694 26.934 20.4535Z" fill="#00C2A8"/>
<path d="M19.4123 25.5645C20.7121 25.5695 21.7618 26.6272 21.7568 27.9271C21.7527 28.9884 21.0388 29.9158 20.0138 30.1911L18.7214 30.5382C17.534 30.8572 16.4499 29.7646 16.7779 28.5798L17.135 27.2901C17.4181 26.2672 18.3509 25.5604 19.4123 25.5645Z" fill="#00C2A8"/>
</svg>
