<svg width="24" height="24" viewBox="0 0 24 24" fill="none" xmlns="http://www.w3.org/2000/svg">
<path d="M12 2.75C17.1086 2.75 21.25 6.89137 21.25 12C21.25 12.6248 21.1874 13.2351 21.0693 13.8252L18.6631 13.0732C18.719 12.7236 18.75 12.3654 18.75 12C18.75 8.27208 15.7279 5.25 12 5.25C8.27208 5.25 5.25 8.27208 5.25 12C5.25 15.7279 8.27208 18.75 12 18.75C12.8914 18.75 13.7415 18.5747 14.5205 18.2607L14.9531 20.2051L15.0068 20.4062C15.0399 20.5119 15.0809 20.6113 15.126 20.7061C14.1493 21.0568 13.0974 21.25 12 21.25C6.89137 21.25 2.75 17.1086 2.75 12C2.75 6.89137 6.89137 2.75 12 2.75Z" fill="#00C2A8"/>
<path d="M15.6963 13.874C15.8351 13.8205 15.9937 13.8103 16.1543 13.8604L20.6543 15.2666L20.9307 15.3535C21.5791 15.5562 21.5879 16.4707 20.9434 16.6855L18.8447 17.3848C18.6287 17.4568 18.461 17.6296 18.3955 17.8477L17.7715 19.9287C17.5642 20.6194 16.5744 20.5829 16.418 19.8789L15.2627 14.6807C15.1825 14.3195 15.391 13.9916 15.6963 13.874Z" fill="#00C2A8"/>
<path d="M12 6.75C14.8995 6.75 17.25 9.1005 17.25 12C17.25 12.2095 17.2358 12.416 17.2119 12.6191L16.6016 12.4287L16.4512 12.3877C16.2071 12.3292 15.9656 12.3138 15.7334 12.3359C15.7432 12.2252 15.75 12.1133 15.75 12C15.75 9.92893 14.0711 8.25 12 8.25C9.92893 8.25 8.25 9.92893 8.25 12C8.25 14.0711 9.92893 15.75 12 15.75C12.6745 15.75 13.3066 15.5705 13.8535 15.2588L14.1895 16.7715C13.5229 17.0779 12.7817 17.25 12 17.25C9.1005 17.25 6.75 14.8995 6.75 12C6.75 9.1005 9.1005 6.75 12 6.75Z" fill="#00C2A8"/>
<path d="M12 9.75C13.2426 9.75 14.25 10.7574 14.25 12C14.25 13.2426 13.2426 14.25 12 14.25C10.7574 14.25 9.75 13.2426 9.75 12C9.75 10.7574 10.7574 9.75 12 9.75Z" fill="#00C2A8"/>
</svg>
