<svg width="48" height="48" viewBox="0 0 48 48" fill="none" xmlns="http://www.w3.org/2000/svg">
<rect opacity="0.1" width="47.4228" height="48" rx="14" fill="#00C2A8"/>
<path fill-rule="evenodd" clip-rule="evenodd" d="M15.4107 23.6596C15.4107 18.7381 19.405 14.75 24.3302 14.75C29.2555 14.75 33.2498 18.7381 33.2498 23.6596V23.9965C33.2498 30.3671 26.9525 34.8275 20.9352 32.724L20.3067 32.5043L18.8849 32.2415C16.8544 31.9859 15.5067 31.5691 14.7131 31.1242C14.3356 30.9126 13.9747 30.6352 13.797 30.2693C13.6996 30.0686 13.6391 29.7984 13.7284 29.5098C13.8179 29.2207 14.0204 29.0332 14.2126 28.9253C15.0342 28.4639 15.407 27.9378 15.5819 27.5658C15.6715 27.3752 15.7135 27.2154 15.7332 27.1116C15.7411 27.0699 15.7453 27.0375 15.7476 27.0161L15.4107 23.6976V23.6596ZM20.4998 25.5C21.0521 25.5 21.4998 25.0523 21.4998 24.5C21.4998 23.9477 21.0521 23.5 20.4998 23.5C19.9475 23.5 19.4998 23.9477 19.4998 24.5C19.4998 25.0523 19.9475 25.5 20.4998 25.5ZM24.4998 25.5C25.0521 25.5 25.4998 25.0523 25.4998 24.5C25.4998 23.9477 25.0521 23.5 24.4998 23.5C23.9475 23.5 23.4998 23.9477 23.4998 24.5C23.4998 25.0523 23.9475 25.5 24.4998 25.5ZM29.4998 24.5C29.4998 25.0523 29.0521 25.5 28.4998 25.5C27.9475 25.5 27.4998 25.0523 27.4998 24.5C27.4998 23.9477 27.9475 23.5 28.4998 23.5C29.0521 23.5 29.4998 23.9477 29.4998 24.5Z" fill="#00C2A8"/>
</svg>
