<svg width="28" height="28" viewBox="0 0 28 28" fill="none" xmlns="http://www.w3.org/2000/svg">
<path d="M10.3645 4.375H7.27541C6.3916 4.375 5.58366 4.87434 5.18841 5.66483L2.74902 10.5436L7.60863 11.1268L10.3645 4.375Z" fill="white"/>
<path d="M3.12656 12.3515L10.2997 21.1816L7.51313 12.8779L3.12656 12.3515Z" fill="white"/>
<path d="M15.07 23.5195C14.3756 23.7411 13.6245 23.7411 12.9302 23.5196L9.4137 13.0408C12.4683 13.2304 15.5317 13.2304 18.5863 13.0407L15.07 23.5195Z" fill="white"/>
<path d="M17.7005 21.1813L24.8734 12.3515L20.4869 12.8779L17.7005 21.1813Z" fill="white"/>
<path d="M25.251 10.5436L22.8116 5.66484C22.4163 4.87434 21.6084 4.375 20.7246 4.375H17.6357L20.3914 11.1268L25.251 10.5436Z" fill="white"/>
<path d="M15.7455 4.375H12.2547L9.43277 11.2885C12.4746 11.4811 15.5255 11.4811 18.5672 11.2885L15.7455 4.375Z" fill="white"/>
</svg>
