<svg width="24" height="24" viewBox="0 0 24 24" fill="none" xmlns="http://www.w3.org/2000/svg">
<rect opacity="0.1" width="24" height="24" rx="6.70833" fill="#00C2A8"/>
<path d="M15.2498 18.5H8.74981C7.67276 18.5 6.7998 17.6271 6.7998 16.55V7.45C6.7998 6.37295 7.67276 5.5 8.74981 5.5H13.2998L17.1998 9.40001V16.55C17.1998 17.6271 16.3269 18.5 15.2498 18.5Z" fill="#00C2A8"/>
<path d="M13.2998 8.1V5.5L17.1998 9.40001H14.5998C13.8816 9.40001 13.2998 8.81825 13.2998 8.1Z" fill="#D5D5D5" fill-opacity="0.5"/>
<path d="M9.14428 15.2692C9.01064 15.2692 8.87643 15.2229 8.76849 15.1281C8.53091 14.9203 8.50693 14.5593 8.71424 14.3223L10.7131 12.0379C10.8228 11.9111 10.9678 11.8483 11.15 11.8426C11.3173 11.8448 11.475 11.9197 11.5823 12.0476L12.5624 13.2241L14.4093 10.9145C14.6075 10.6689 14.9656 10.6278 15.2123 10.8254C15.4584 11.023 15.4984 11.3822 15.3014 11.6284L13.017 14.4839C12.9096 14.6176 12.748 14.6964 12.5766 14.6981C12.3979 14.7238 12.242 14.6238 12.1323 14.4931L11.1329 13.2932L9.57432 15.0739C9.46125 15.2035 9.30305 15.2692 9.14428 15.2692Z" fill="#EDECFF"/>
</svg>
