<svg width="42" height="42" viewBox="0 0 42 42" fill="none" xmlns="http://www.w3.org/2000/svg">
<rect x="0.823342" y="0.823342" width="39.5706" height="39.5706" rx="19.7853" fill="#00C2A8"/>
<rect x="0.823342" y="0.823342" width="39.5706" height="39.5706" rx="19.7853" stroke="#00C2A8" stroke-width="1.64668"/>
<path d="M25.0786 16.1382C25.0786 18.607 23.0772 20.6084 20.6084 20.6084C18.1396 20.6084 16.1382 18.607 16.1382 16.1382C16.1382 13.6694 18.1396 11.668 20.6084 11.668C23.0772 11.668 25.0786 13.6694 25.0786 16.1382Z" fill="white"/>
<path d="M27.7608 25.5257C27.7608 27.7476 24.5585 29.5489 20.6084 29.5489C16.6583 29.5489 13.4561 27.7476 13.4561 25.5257C13.4561 23.3037 16.6583 21.5025 20.6084 21.5025C24.5585 21.5025 27.7608 23.3037 27.7608 25.5257Z" fill="white"/>
<path d="M27.1572 22.7799C27.7553 22.44 29.287 21.4765 29.5488 20.3896C29.7852 19.4082 29.1852 18.3884 28.1692 18.3738C28.1482 18.3735 28.1269 18.3733 28.1053 18.3733C27.7894 18.3733 27.4996 18.4928 27.2854 18.6155C27.1729 18.6799 27.0718 18.7217 26.9422 18.7217C26.8125 18.7217 26.6631 18.6799 26.5506 18.6155C26.3364 18.4928 26.0466 18.3733 25.7307 18.3733C25.7091 18.3733 25.6878 18.3735 25.6668 18.3738C24.6508 18.3884 24.0508 19.4082 24.2873 20.3896C24.5491 21.4765 26.0807 22.44 26.6788 22.7799C26.8282 22.8647 27.0078 22.8647 27.1572 22.7799Z" fill="white"/>
</svg>
