<svg width="42" height="42" viewBox="0 0 42 42" fill="none" xmlns="http://www.w3.org/2000/svg">
<rect x="0.827161" y="0.827161" width="39.8742" height="39.8742" rx="19.9371" fill="#00C2A8"/>
<rect x="0.827161" y="0.827161" width="39.8742" height="39.8742" rx="19.9371" stroke="#00C2A8" stroke-width="1.65432"/>
<path fill-rule="evenodd" clip-rule="evenodd" d="M24.1025 12.4355C24.2415 12.0881 24.0725 11.6939 23.7252 11.555C23.3778 11.416 22.9836 11.585 22.8446 11.9323L22.2682 13.3736C22.2651 13.3811 22.262 13.3846 22.2595 13.3869C22.2562 13.3898 22.2514 13.3929 22.2452 13.3948C22.2389 13.3967 22.2332 13.397 22.2289 13.3964C22.2255 13.396 22.2209 13.3948 22.2142 13.3903C21.5533 12.9497 20.6583 13.151 20.2496 13.8321L19.3418 15.3451H18.0544C16.3711 15.3451 15.5294 15.3451 14.8655 15.6201C13.9802 15.9868 13.2769 16.6901 12.9103 17.5753C12.6353 18.2393 12.6353 19.0809 12.6353 20.7643C12.6353 23.2893 12.6353 24.5518 13.0478 25.5477C13.5978 26.8755 14.6527 27.9305 15.9806 28.4805C16.9765 28.893 18.239 28.893 20.764 28.893C23.289 28.893 24.5515 28.893 25.5474 28.4805C26.8753 27.9305 27.9302 26.8755 28.4802 25.5477C28.8928 24.5518 28.8928 23.2893 28.8928 20.7643C28.8928 19.0809 28.8928 18.2393 28.6178 17.5753C28.2511 16.6901 27.5478 15.9868 26.6625 15.6201C25.9986 15.3451 25.1569 15.3451 23.4736 15.3451H20.9217L21.4113 14.5291C21.422 14.5113 21.4454 14.5061 21.4627 14.5176C22.1979 15.0077 23.1979 14.6972 23.526 13.8767L24.1025 12.4355ZM17.6028 22.5707C18.3511 22.5707 18.9576 21.9641 18.9576 21.2159C18.9576 20.4676 18.3511 19.8611 17.6028 19.8611C16.8546 19.8611 16.248 20.4676 16.248 21.2159C16.248 21.9641 16.8546 22.5707 17.6028 22.5707ZM25.28 21.2159C25.28 21.9641 24.6734 22.5707 23.9252 22.5707C23.177 22.5707 22.5704 21.9641 22.5704 21.2159C22.5704 20.4676 23.177 19.8611 23.9252 19.8611C24.6734 19.8611 25.28 20.4676 25.28 21.2159ZM18.3517 24.0741C18.519 23.7395 18.9259 23.6039 19.2606 23.7712L19.4513 23.8665C20.2777 24.2797 21.2504 24.2797 22.0767 23.8665L22.2675 23.7712C22.6021 23.6039 23.009 23.7395 23.1763 24.0741C23.3436 24.4087 23.208 24.8156 22.8733 24.9829L22.6826 25.0783C21.4748 25.6822 20.0532 25.6822 18.8454 25.0783L18.6547 24.9829C18.3201 24.8156 18.1844 24.4087 18.3517 24.0741Z" fill="white"/>
</svg>
