<svg width="41" height="41" viewBox="0 0 41 41" fill="none" xmlns="http://www.w3.org/2000/svg">
<rect x="0.775234" y="0.775234" width="38.6861" height="38.6861" rx="19.3431" fill="#00C2A8"/>
<rect x="0.775234" y="0.775234" width="38.6861" height="38.6861" rx="19.3431" stroke="#00C2A8" stroke-width="1.55047"/>
<path fill-rule="evenodd" clip-rule="evenodd" d="M29.1104 13.8717C29.0938 12.3716 27.9188 11.1875 26.4189 11.1594C24.4401 11.1222 21.6304 11.7074 18.523 13.7403C18.2456 13.5973 17.932 13.5125 17.6125 13.4725C17.083 13.4062 16.4781 13.4539 15.8423 13.6124C14.5772 13.9278 13.1267 14.697 11.7774 16.0261C11.4786 16.2659 11.2675 16.6218 11.2086 17.0029C11.1433 17.4261 11.2681 17.9181 11.7091 18.2446C12.1142 18.5446 12.668 18.6148 13.2832 18.5386L13.3204 18.5338C13.0049 19.0014 12.7859 19.4687 12.7807 19.921C12.7778 20.1738 12.8421 20.419 12.9852 20.6343C13.1243 20.8437 13.3123 20.9864 13.499 21.0837C13.8537 21.2686 14.2902 21.3341 14.6867 21.3609C15.2227 21.3972 15.8892 21.3684 16.5066 21.3416C16.7924 21.3292 17.0678 21.3173 17.3148 21.3125C17.7338 21.3044 18.0885 21.314 18.3639 21.3558C18.6528 21.3995 18.7394 21.4631 18.7446 21.4669C18.7482 21.472 18.8109 21.5586 18.8524 21.8481C18.892 22.1238 18.899 22.4786 18.8877 22.8974C18.881 23.1444 18.8669 23.4197 18.8523 23.7055C18.8208 24.3226 18.7868 24.9888 18.819 25.5251C18.8428 25.9219 18.9049 26.3589 19.0871 26.7149C19.183 26.9024 19.3242 27.0914 19.5325 27.2322C19.7467 27.3769 19.9914 27.4431 20.2442 27.4421C20.7019 27.4404 21.1766 27.2199 21.6522 26.902C21.6492 26.9227 21.6463 26.9431 21.6436 26.9634C21.5627 27.578 21.6286 28.1324 21.9255 28.5398C22.2486 28.9833 22.7396 29.1119 23.1633 29.0498C23.5448 28.9938 23.9024 28.7854 24.1444 28.4885C25.4838 27.1494 26.2642 25.7049 26.5893 24.4423C26.7527 23.8077 26.8051 23.2033 26.7428 22.6732C26.7044 22.3462 26.6192 22.0251 26.4724 21.742C28.5253 18.654 29.1324 15.8521 29.1104 13.8717ZM16.1694 14.9241C16.4981 14.8422 16.7956 14.8028 17.0544 14.7964C16.386 15.3213 15.7084 15.9153 15.0265 16.5858C14.1615 16.9716 13.5417 17.1442 13.1169 17.1969C12.7882 17.2376 12.6228 17.2017 12.554 17.1768C12.5679 17.1416 12.5949 17.1018 12.6277 17.0773C12.6533 17.0583 12.6775 17.0375 12.7002 17.015C13.9018 15.8228 15.1534 15.1775 16.1694 14.9241ZM22.984 27.14C23.0399 26.7157 23.2173 26.0973 23.6097 25.2353C24.2855 24.5585 24.8846 23.8855 25.4147 23.2212C25.4062 23.4799 25.3646 23.777 25.2801 24.1052C25.019 25.1192 24.3641 26.3658 23.1627 27.5582C23.14 27.5807 23.119 27.6047 23.0998 27.6301C23.0751 27.6628 23.0351 27.6895 22.9997 27.7031C22.9754 27.6341 22.9407 27.4684 22.984 27.14ZM23.0629 17.181C23.7641 17.8877 24.9055 17.8921 25.6121 17.1908C26.3188 16.4896 26.3232 15.3482 25.6219 14.6416C24.9207 13.9349 23.7793 13.9306 23.0727 14.6318C22.366 15.333 22.3617 16.4744 23.0629 17.181Z" fill="white"/>
<path d="M16.2836 21.7875C17.4552 21.792 18.4013 22.7454 18.3968 23.9169C18.3931 24.8735 17.7496 25.7093 16.8258 25.9574L15.6609 26.2703C14.5908 26.5578 13.6136 25.5731 13.9093 24.5052L14.2311 23.3428C14.4863 22.4209 15.327 21.7838 16.2836 21.7875Z" fill="white"/>
</svg>
