<svg width="28" height="28" viewBox="0 0 28 28" fill="none" xmlns="http://www.w3.org/2000/svg">
<path fill-rule="evenodd" clip-rule="evenodd" d="M6.99967 3.5H20.9997C23.577 3.5 25.6663 5.58934 25.6663 8.16667V17.5C25.6663 20.0773 23.577 22.1667 20.9997 22.1667H6.99967C4.42235 22.1667 2.33301 20.0773 2.33301 17.5V8.16667C2.33301 5.58934 4.42235 3.5 6.99967 3.5ZM12.1301 10.6587C12.5399 10.4025 12.6645 9.86271 12.4083 9.45292C12.1522 9.04312 11.6124 8.91855 11.2026 9.17467L8.11886 11.102C6.83941 11.9017 6.83941 13.765 8.11886 14.5647L11.2026 16.492C11.6124 16.7481 12.1522 16.6235 12.4083 16.2137C12.6645 15.804 12.5399 15.2641 12.1301 15.008L9.04635 13.0807C8.86358 12.9664 8.86358 12.7002 9.04635 12.586L12.1301 10.6587ZM15.591 9.45292C15.3349 9.86271 15.4595 10.4025 15.8693 10.6587L18.953 12.586C19.1358 12.7002 19.1358 12.9664 18.953 13.0807L15.8693 15.008C15.4595 15.2641 15.3349 15.804 15.591 16.2137C15.8471 16.6235 16.387 16.7481 16.7968 16.492L19.8805 14.5647C21.1599 13.765 21.1599 11.9017 19.8805 11.102L16.7968 9.17467C16.387 8.91855 15.8471 9.04312 15.591 9.45292Z" fill="#00C2A8"/>
<path d="M11.6663 22.4583C11.1831 22.4583 10.7913 22.8501 10.7913 23.3333C10.7913 23.8166 11.1831 24.2083 11.6663 24.2083H16.333C16.8163 24.2083 17.208 23.8166 17.208 23.3333C17.208 22.8501 16.8163 22.4583 16.333 22.4583H11.6663Z" fill="#00C2A8"/>
</svg>
